<svg width="250" height="250" viewBox="0 0 250 250" fill="none" xmlns="http://www.w3.org/2000/svg">
<path d="M167.969 242.188V195.312H214.844V7.8125H35.1562V242.188H167.969Z" fill="#C7E2FC"/>
<path d="M35.1562 210.465C44.5469 213.305 54.3555 214.844 64.4531 214.844C132.41 214.844 187.5 146.637 187.5 62.5C187.5 43.2188 184.578 24.793 179.301 7.8125H35.1562V210.465Z" fill="#EBF7FE"/>
<path d="M74.2188 70.3125C87.1629 70.3125 97.6562 59.8192 97.6562 46.875C97.6562 33.9308 87.1629 23.4375 74.2188 23.4375C61.2746 23.4375 50.7812 33.9308 50.7812 46.875C50.7812 59.8192 61.2746 70.3125 74.2188 70.3125Z" fill="#F5B953"/>
<path d="M74.2188 132.812C87.1629 132.812 97.6562 122.319 97.6562 109.375C97.6562 96.4308 87.1629 85.9375 74.2188 85.9375C61.2746 85.9375 50.7812 96.4308 50.7812 109.375C50.7812 122.319 61.2746 132.812 74.2188 132.812Z" fill="#F5B953"/>
<path d="M74.2188 195.312C87.1629 195.312 97.6562 184.819 97.6562 171.875C97.6562 158.931 87.1629 148.438 74.2188 148.438C61.2746 148.438 50.7812 158.931 50.7812 171.875C50.7812 184.819 61.2746 195.312 74.2188 195.312Z" fill="#F5B953"/>
<path d="M167.969 242.188V195.312H214.844L167.969 242.188Z" fill="#C1C8D1"/>
<path d="M74.2188 74.2188C59.1406 74.2188 46.875 61.9492 46.875 46.875C46.875 31.8008 59.1406 19.5312 74.2188 19.5312C89.2969 19.5312 101.562 31.8008 101.562 46.875C101.562 61.9492 89.2969 74.2188 74.2188 74.2188ZM74.2188 27.3438C63.4492 27.3438 54.6875 36.1055 54.6875 46.875C54.6875 57.6445 63.4492 66.4062 74.2188 66.4062C84.9883 66.4062 93.75 57.6445 93.75 46.875C93.75 36.1055 84.9883 27.3438 74.2188 27.3438Z" fill="#F9D18B"/>
<path d="M74.2187 62.5C72.9961 62.5 71.8359 61.9297 71.0938 60.9375L59.375 45.3125L65.625 40.6289L73.5508 51.1953L90.2539 17.7852L97.2422 21.2813L77.7109 60.3438C77.1055 61.5547 75.918 62.3672 74.5664 62.4883C74.4531 62.4961 74.3359 62.5 74.2187 62.5Z" fill="#8892A0"/>
<path d="M74.2188 136.719C59.1406 136.719 46.875 124.449 46.875 109.375C46.875 94.3008 59.1406 82.0312 74.2188 82.0312C89.2969 82.0312 101.562 94.3008 101.562 109.375C101.562 124.449 89.2969 136.719 74.2188 136.719ZM74.2188 89.8438C63.4492 89.8438 54.6875 98.6055 54.6875 109.375C54.6875 120.145 63.4492 128.906 74.2188 128.906C84.9883 128.906 93.75 120.145 93.75 109.375C93.75 98.6055 84.9883 89.8438 74.2188 89.8438Z" fill="#F9D18B"/>
<path d="M74.2187 125C72.9961 125 71.8359 124.43 71.0938 123.438L59.375 107.813L65.625 103.129L73.5508 113.695L90.2539 80.2852L97.2422 83.7813L77.7109 122.844C77.1055 124.055 75.918 124.867 74.5664 124.988C74.4531 124.996 74.3359 125 74.2187 125Z" fill="#8892A0"/>
<path d="M74.2188 199.219C59.1406 199.219 46.875 186.949 46.875 171.875C46.875 156.801 59.1406 144.531 74.2188 144.531C89.2969 144.531 101.562 156.801 101.562 171.875C101.562 186.949 89.2969 199.219 74.2188 199.219ZM74.2188 152.344C63.4492 152.344 54.6875 161.105 54.6875 171.875C54.6875 182.645 63.4492 191.406 74.2188 191.406C84.9883 191.406 93.75 182.645 93.75 171.875C93.75 161.105 84.9883 152.344 74.2188 152.344Z" fill="#F9D18B"/>
<path d="M74.2187 187.5C72.9961 187.5 71.8359 186.93 71.0938 185.937L59.375 170.312L65.625 165.629L73.5508 176.195L90.2539 142.785L97.2422 146.281L77.7109 185.344C77.1055 186.555 75.918 187.367 74.5664 187.488C74.4531 187.496 74.3359 187.5 74.2187 187.5Z" fill="#8892A0"/>
<path d="M109.375 66.4062H203.125V74.2188H109.375V66.4062Z" fill="#8892A0"/>
<path d="M109.375 50.7812H203.125V58.5938H109.375V50.7812Z" fill="#8892A0"/>
<path d="M109.375 35.1562H203.125V42.9688H109.375V35.1562Z" fill="#8892A0"/>
<path d="M109.375 128.906H203.125V136.719H109.375V128.906Z" fill="#8892A0"/>
<path d="M109.375 113.281H203.125V121.094H109.375V113.281Z" fill="#8892A0"/>
<path d="M109.375 97.6562H203.125V105.469H109.375V97.6562Z" fill="#8892A0"/>
<path d="M109.375 191.406H156.25V199.219H109.375V191.406Z" fill="#8892A0"/>
<path d="M109.375 175.781H203.125V183.594H109.375V175.781Z" fill="#8892A0"/>
<path d="M109.375 160.156H203.125V167.969H109.375V160.156Z" fill="#8892A0"/>
</svg>
