<svg width="250" height="250" viewBox="0 0 250 250" fill="none" xmlns="http://www.w3.org/2000/svg">
<g clip-path="url(#clip0)">
<path d="M116.849 227.698L99.6348 160.405L102.243 159.362L119.458 227.176L116.849 227.698Z" fill="#ADB3BA"/>
<path d="M52.165 227.698L49.5564 227.176L59.9897 154.667L62.5978 155.188L52.165 227.698Z" fill="#ADB3BA"/>
<path d="M130.933 227.698L113.198 160.405L115.806 159.362L133.542 227.176L130.933 227.698Z" fill="#ADB3BA"/>
<path d="M66.2494 227.698L63.6409 227.176L73.5524 154.667L76.1604 155.188L66.2494 227.698Z" fill="#ADB3BA"/>
<path d="M49.035 152.579C49.035 153.101 58.4246 160.404 74.5959 163.534C90.7672 166.664 130.934 160.404 138.237 155.187C145.54 149.971 138.237 122.845 132.499 118.151C126.761 113.456 122.066 115.542 115.806 105.631C110.068 95.7195 72.5096 88.4166 61.0332 94.6764C49.5568 100.936 33.9068 123.889 49.035 152.579Z" fill="#66C6B9"/>
<path d="M70.4226 211.004C70.4226 211.004 70.9444 204.744 70.9444 200.05C70.9444 195.355 83.464 191.182 83.464 191.182C83.464 191.182 84.5071 209.961 85.5507 213.613C86.5944 217.264 86.5939 217.264 86.5939 217.264C86.5939 217.264 73.5525 223.002 70.4226 211.004Z" fill="#E8EAE9"/>
<path d="M70.4225 208.918C70.4225 208.918 71.4656 213.091 75.6392 214.656C79.8122 215.699 84.507 211.004 85.0288 209.961C85.0288 209.961 86.072 217.264 89.7237 219.873C93.3754 222.481 98.5915 228.74 98.5915 228.74C98.5915 228.74 94.9398 232.913 88.68 232.392C82.4203 231.87 73.5524 226.132 71.9875 223.524C70.4225 220.916 67.8144 218.308 70.4225 208.918Z" fill="#344A5E"/>
<path d="M122.588 226.654L121.544 228.219V230.306L127.804 231.871V230.828C127.804 230.828 130.934 230.306 133.542 232.393C136.15 234.48 138.759 236.566 142.41 236.566C145.54 236.566 149.713 236.044 150.235 233.958C151.278 232.392 131.455 226.654 122.588 226.654Z" fill="#415A6B"/>
<path d="M122.066 228.218C122.066 228.218 120.501 220.394 123.631 216.742C123.631 216.742 123.109 218.307 124.674 218.829C125.717 219.351 128.326 217.786 132.499 215.699C136.672 213.612 140.323 215.699 140.323 215.699C140.323 215.699 144.496 223.002 146.061 224.567C148.148 226.132 157.538 230.305 160.146 230.305C162.754 230.305 160.668 237.608 154.408 237.086C148.148 236.565 139.28 235 135.628 231.87C131.455 228.74 122.066 228.218 122.066 228.218Z" fill="#344A5E"/>
<path d="M242.045 242.825H155.973C153.365 242.825 151.278 241.782 149.713 239.695C148.148 238.13 147.626 235.522 147.626 232.913L158.581 160.926L209.181 161.969L248.826 229.784C250.391 232.392 250.391 235.522 248.826 238.13C247.783 241.26 245.175 242.825 242.045 242.825ZM160.668 163.534L150.235 233.435C150.235 235 150.235 237.087 151.8 238.13C152.843 239.695 154.408 240.217 156.495 240.217H242.567C244.653 240.217 246.74 239.174 247.783 237.087C248.826 235 248.826 232.914 247.783 231.349L208.66 164.578L160.668 163.534Z" fill="#CED6E0"/>
<path d="M53.208 103.023C56.6652 103.023 59.4678 98.8196 59.4678 93.6338C59.4678 88.448 56.6652 84.2441 53.208 84.2441C49.7508 84.2441 46.9482 88.448 46.9482 93.6338C46.9482 98.8196 49.7508 103.023 53.208 103.023Z" fill="#344A5E"/>
<path d="M51.1213 147.885C51.1213 147.885 59.4679 159.361 64.684 160.404C64.684 160.404 61.5541 168.751 64.684 180.227C67.8139 191.703 70.9438 203.179 70.9438 203.179C70.9438 203.179 75.1168 202.657 78.2467 202.136C81.3766 201.614 86.5933 199.006 86.5933 195.354C86.5933 191.703 86.5933 182.313 86.5933 176.053C86.5933 169.793 86.0714 166.142 87.1151 163.534C88.1582 161.447 86.5933 159.361 91.2881 158.317C95.9829 157.274 112.154 157.274 112.154 157.274L135.107 160.404C135.107 160.404 130.412 190.138 129.89 193.268C129.89 193.268 131.977 192.746 135.628 194.833C139.279 196.919 145.018 198.484 145.018 198.484C145.018 198.484 153.364 181.27 154.929 176.053C156.494 170.837 162.754 154.666 163.797 149.449C165.362 144.232 165.362 135.365 155.972 131.713C146.582 128.061 137.715 128.061 137.715 128.061L62.5978 123.889L51.1213 147.885Z" fill="#2A3F4F"/>
<path d="M75.1173 52.9447C75.1173 52.9447 76.6823 57.6395 77.2041 59.2044C77.7259 60.7694 79.8122 71.724 79.8122 71.724L92.3317 74.3321L95.9834 65.9855C95.9834 65.9855 98.0702 64.9424 98.5915 60.2476C99.1133 55.5527 99.1133 51.3797 99.1133 47.728C99.1133 44.0763 98.0702 38.3383 98.0702 38.3383C98.0702 38.3383 97.0266 33.1217 95.4616 31.0354C93.8967 28.9492 73.5524 33.6435 72.5092 37.817C71.4661 41.9905 74.5955 51.3797 75.1173 52.9447Z" fill="#FEDBAB"/>
<path d="M78.7691 67.0293C78.2472 63.8994 77.7259 60.7695 77.2041 59.7264C76.6823 58.6833 76.161 56.0747 75.6392 54.5098C76.161 55.5529 76.161 56.5965 76.6823 58.1615C77.2041 60.7695 78.2472 63.8989 78.7691 67.0293Z" fill="#FEDBAB"/>
<path d="M92.3317 74.3326L95.4616 67.0296C95.4616 67.0296 91.8099 69.6377 87.1151 68.0728C82.4203 66.5078 77.2036 60.248 77.2036 60.248C77.2036 60.248 82.9421 70.6808 92.3317 74.3326Z" fill="#ECBC7A"/>
<path d="M87.1152 70.1592H88.6802L99.113 69.116L115.284 125.454C115.284 125.454 103.808 136.931 93.375 137.452C82.9422 137.973 65.7278 131.713 62.5979 130.148C59.9898 128.583 75.1175 68.5938 75.1175 68.5938L87.1152 70.1592Z" fill="#8AD7F8"/>
<path d="M88.68 76.4189L90.2449 77.9839C90.2449 77.9839 91.288 81.6356 91.8098 82.6787C91.8098 83.7219 100.678 144.233 100.678 144.233L95.4615 151.536L88.68 145.798C88.68 145.798 83.4633 92.5902 84.5069 87.8954C85.0287 83.2005 86.5937 78.5057 86.5937 78.5057L88.68 76.4189Z" fill="#E8EAE9"/>
<path d="M85.0288 71.2025L87.1156 70.6807H88.6805L92.3322 72.2456C92.3322 72.2456 90.2455 76.4186 90.7673 78.5054C89.2024 77.9836 88.1592 77.9836 86.5943 79.0272C86.5943 79.0272 85.5511 74.3324 83.9862 73.2892C81.899 72.2456 85.0288 71.2025 85.0288 71.2025Z" fill="#E8EAE9"/>
<path d="M74.0743 51.9014C74.0743 51.9014 70.9444 52.4232 66.2496 53.4663C61.5548 54.5094 51.6433 55.5531 51.6433 55.5531C51.6433 55.5531 54.2514 59.7261 53.73 65.9859C53.73 72.7675 57.3817 78.5054 57.3817 82.6785C57.3817 86.8515 50.6001 124.932 46.4271 133.279C42.2541 141.625 39.6455 145.276 39.1237 152.58C38.0806 159.883 35.9938 170.837 39.1237 172.924C42.2536 175.011 46.4266 165.099 52.1651 156.753C57.9031 148.406 74.0743 117.107 75.6393 108.239C77.2042 98.8497 74.0743 51.9014 74.0743 51.9014Z" fill="#344A5E"/>
<path d="M61.033 110.848L64.1628 112.413C64.1628 112.413 67.8145 113.456 66.2496 100.937C66.2496 100.937 63.1197 101.98 62.0766 103.023C61.033 104.066 61.033 110.848 61.033 110.848Z" fill="#ADB3BA"/>
<path d="M79.2903 71.7235V80.0701C79.2903 85.808 75.1173 108.239 75.1173 108.239C75.1173 108.239 75.6391 96.2413 74.0742 92.5896C73.031 88.9379 66.7712 74.3321 66.7712 74.3321L70.9443 71.724L67.8144 69.6373L73.5523 52.4229C73.5523 52.4229 74.0742 52.4229 74.0742 52.9447V53.4665C74.0742 53.4665 75.6391 58.1613 76.1609 59.7263C77.204 60.7694 79.2903 69.6372 79.2903 71.7235Z" fill="#415A6B"/>
<path d="M79.2903 79.5482V80.0701C79.2903 85.808 75.1173 108.239 75.1173 108.239C75.1173 108.239 75.6391 96.2413 74.0742 92.5896C73.031 88.9379 66.7712 74.3321 66.7712 74.3321L70.9443 71.724L67.8144 69.6373L73.5523 52.4229C74.0742 52.9447 74.5955 53.466 74.5955 54.5096C75.1173 55.5527 75.1173 56.5964 75.6386 58.1613C76.6817 61.2912 77.2036 63.8993 77.7254 67.0292C79.2903 71.2022 79.2903 75.3752 79.2903 79.5482Z" fill="#415A6B"/>
<path d="M63.1197 102.501C63.1197 102.501 67.2927 103.023 67.2927 102.501C67.2927 101.458 67.8145 100.936 68.8576 99.8929C69.9008 99.3711 70.9444 99.3711 71.9875 99.3711C73.5525 99.3711 76.6824 99.3711 77.2042 100.414C78.2473 101.457 77.2042 103.022 75.6392 102.501C74.0743 102.501 73.0311 102.501 72.5093 103.023C71.9875 103.545 71.9875 103.545 71.9875 103.545C71.9875 103.545 75.6392 104.588 77.2042 104.066C78.7691 103.545 81.899 103.545 83.4639 103.545C85.0289 104.066 86.5938 104.588 86.072 105.631C86.072 105.631 87.1152 106.153 86.5938 107.196C86.072 108.239 83.4639 109.283 80.3341 109.283C76.6824 109.283 71.4662 110.326 68.3363 109.805C65.2064 109.805 60.5116 108.762 56.3386 108.24C52.1655 108.24 52.1655 108.24 52.1655 108.24L63.1197 102.501Z" fill="#FEDBAB"/>
<path d="M77.2042 50.3365C78.2474 52.9446 78.2474 55.5532 77.2042 56.0745C75.6393 56.5963 74.0743 55.0313 72.5094 52.4228C71.4663 49.8147 71.4663 47.2061 72.5094 46.6848C74.0743 46.1635 75.6393 47.7284 77.2042 50.3365Z" fill="#FEDBAB"/>
<path d="M137.193 98.8495C137.193 102.501 136.15 105.109 136.15 105.109L128.325 106.152C128.325 106.152 127.804 95.7197 118.414 93.6329C117.892 89.9812 117.371 86.8513 117.371 84.765C117.371 76.4185 124.152 59.2041 124.152 59.2041C124.152 59.2041 127.282 61.2909 126.761 64.9421C126.239 68.5938 128.847 70.1587 128.847 72.245C128.847 74.3313 128.325 74.8531 128.847 76.9398C129.89 78.5053 137.715 95.1983 137.193 98.8495Z" fill="#415A6B"/>
<path d="M137.193 128.063C137.193 128.063 127.804 129.106 124.152 129.628C119.979 130.149 117.892 130.149 116.327 128.584C114.241 127.02 105.373 108.762 105.373 108.762C105.373 108.762 102.243 94.1557 101.721 80.593C101.721 71.7251 99.6342 61.8137 98.5911 56.0757C98.5911 54.5107 98.5911 52.9458 98.5911 51.3809C100.678 51.9027 106.416 53.4676 110.589 54.5107C115.805 56.0757 124.673 58.1625 124.673 58.1625C124.673 58.1625 117.892 75.3769 117.892 83.7234C117.892 92.0699 123.108 120.76 125.195 122.847C127.804 125.976 137.193 128.063 137.193 128.063Z" fill="#344A5E"/>
<path d="M117.893 105.11C117.893 105.11 114.241 104.588 115.806 93.1121C115.806 93.1121 117.893 92.0689 120.501 93.6339C123.109 95.1988 125.196 99.8936 124.152 101.98C123.109 104.067 118.936 105.11 117.893 105.11Z" fill="#CED6E0"/>
<path d="M111.633 122.325C111.111 121.803 104.33 112.935 101.2 101.458C99.1135 93.6337 97.5485 76.9411 96.5054 65.9865C97.0272 64.9434 97.5485 63.8998 98.0703 61.2917C98.0703 59.2049 98.5921 57.64 98.5921 55.5537L105.895 68.5951L104.33 71.725L109.025 72.2468C109.025 72.2468 106.417 93.1129 106.938 98.8509C107.46 104.067 111.633 121.281 111.633 122.325Z" fill="#415A6B"/>
<path d="M117.893 92.5896L115.806 93.1114C115.806 93.1114 113.198 93.1114 111.633 92.5896C110.068 92.0678 106.938 90.5028 105.373 91.5464C103.808 92.0683 100.678 97.8062 100.678 97.8062L113.198 104.588C113.198 104.588 114.763 104.066 115.285 103.545C115.806 103.023 118.414 104.588 122.066 103.545C126.239 103.023 126.239 103.023 126.239 103.023C126.239 103.023 124.152 97.8062 123.109 95.72C122.066 93.6332 119.458 93.1114 117.893 92.5896Z" fill="#FEDBAB"/>
<path d="M178.404 32.6L182.577 35.7299V36.7731L173.709 59.7259C173.709 59.7259 171.101 56.596 169.014 56.0742C166.927 55.5524 163.276 59.2041 160.667 58.6823C158.059 58.1605 157.016 57.1173 156.494 56.0742C155.973 54.5093 151.8 54.5093 153.886 52.4225C153.886 52.4225 152.321 52.9443 152.321 51.3794C152.321 49.8144 150.756 49.2926 150.756 49.2926C150.756 49.2926 146.062 50.3357 146.583 47.7277C147.105 45.1196 148.148 41.9897 148.148 41.9897C148.148 41.9897 147.627 41.4679 146.583 40.9466C145.54 40.4248 141.367 35.2086 141.889 30.5138C142.41 25.8189 160.668 20.6023 167.971 21.1241C174.752 22.1672 178.404 32.6 178.404 32.6Z" fill="#FEDBAB"/>
<path d="M158.581 190.139C158.581 190.139 163.798 202.658 168.493 205.266C173.188 207.874 174.752 210.483 174.752 210.483L154.408 219.351C154.408 219.351 154.408 212.048 151.8 206.831C149.192 201.093 142.932 195.355 142.932 195.355L158.581 190.139Z" fill="#E8EAE9"/>
<path d="M155.451 224.568C155.451 224.568 149.192 228.219 145.018 229.262C140.845 230.306 136.151 231.87 136.151 235C136.151 238.13 141.367 239.695 146.583 239.695C151.8 239.695 160.668 238.13 163.276 235C165.884 231.87 170.058 228.741 170.058 228.741L172.144 230.827C172.144 230.827 182.577 225.611 183.621 222.481C185.186 219.351 184.143 219.351 184.143 219.351L181.535 215.699L155.451 224.568Z" fill="#344A5E"/>
<path d="M153.365 215.698C153.365 215.698 156.495 212.569 162.233 212.569C167.971 212.569 173.187 208.396 173.187 208.396C173.187 208.396 177.36 209.439 181.534 215.177C181.534 215.177 174.752 218.307 170.579 221.437C166.406 225.089 164.319 226.654 160.668 227.697C156.495 229.262 138.758 229.783 136.15 235C136.15 235 135.629 232.913 140.323 230.827C145.018 228.218 150.235 226.654 151.278 224.045C152.843 220.394 153.365 215.698 153.365 215.698Z" fill="#415A6B"/>
<path d="M138.758 140.061C138.758 140.061 117.892 142.669 113.719 145.799C109.546 148.928 109.024 155.188 110.068 158.84C111.111 161.97 145.018 201.615 148.148 203.18C148.148 203.18 150.756 199.528 154.93 196.92C159.103 194.312 160.146 190.661 160.146 190.661C160.146 190.661 146.062 173.968 141.889 168.23C137.716 162.491 136.151 161.97 136.151 161.97L157.017 151.015L138.758 140.061Z" fill="#344A5E"/>
<path d="M229.525 236.565H149.192C147.105 236.565 145.019 235.522 143.454 233.957C141.889 232.392 141.367 229.784 141.889 227.697L151.8 160.404L199.27 161.447L236.307 224.567C237.872 227.175 237.872 229.784 236.307 232.392C234.742 235 232.134 236.565 229.525 236.565ZM153.886 163.012L143.975 228.219C143.975 229.784 143.975 231.349 145.018 232.392C146.061 233.435 147.626 234.479 149.191 234.479H229.525C231.612 234.479 233.177 233.435 234.22 231.87C235.263 230.305 235.263 228.219 234.22 226.132L197.704 164.056L153.886 163.012Z" fill="#ADB3BA"/>
<path d="M99.1135 201.093C99.1135 201.093 100.157 204.223 106.416 205.266C112.154 206.309 119.458 210.483 119.458 210.483C119.458 210.483 134.585 181.792 136.15 176.054C137.715 170.316 138.758 161.969 138.758 161.969C138.758 161.969 155.973 159.883 173.187 160.926C190.402 161.969 214.919 152.058 217.528 146.32C220.136 140.582 221.701 128.062 221.701 128.062L167.449 132.236C167.449 132.236 165.363 135.887 160.668 136.409C155.451 136.93 134.585 137.452 129.891 139.538C125.196 141.103 120.501 141.625 118.414 150.493C116.328 159.361 106.938 182.836 99.1135 201.093Z" fill="#415A6B"/>
<path d="M182.577 36.7734C182.577 36.7734 173.187 45.6413 171.1 59.7258L179.447 66.5074L189.358 44.0764L182.577 36.7734Z" fill="#CED6E0"/>
<path d="M221.179 116.064L214.919 145.798C214.919 145.798 166.928 142.668 163.798 136.93C160.668 131.192 164.841 106.674 166.406 100.936C167.971 95.7195 173.187 82.6786 176.317 68.5941C179.447 54.5096 189.359 43.0332 189.359 43.0332L192.489 43.555C192.489 43.555 201.357 48.2498 204.486 50.3366C207.616 52.4234 214.919 61.2912 216.484 65.4642C217.005 70.1591 221.179 116.064 221.179 116.064Z" fill="#344A5E"/>
<path d="M186.75 39.3818C186.75 39.3818 183.099 41.4686 179.969 52.4232C176.317 63.3778 173.709 76.4192 172.144 81.114C170.579 85.8089 166.406 100.937 166.406 100.937C166.406 100.937 173.709 82.679 175.796 75.3756C177.361 68.0727 181.012 50.8583 192.488 43.5549L186.75 39.3818Z" fill="#415A6B"/>
<path d="M145.54 163.013C145.54 163.013 152.321 157.275 157.016 151.015C161.711 144.755 175.796 126.498 188.837 121.281C201.878 116.065 237.35 108.762 237.35 108.762C237.35 108.762 231.612 131.714 230.569 141.104C229.526 150.493 223.266 166.665 204.487 168.23C185.707 169.273 145.54 163.013 145.54 163.013Z" fill="#66C6B9"/>
<path d="M182.577 35.7306C181.012 37.2955 174.752 38.3386 173.187 36.2524C171.622 33.6443 166.405 32.0793 164.319 34.1656C162.232 36.7737 163.797 40.4254 163.797 40.4254L161.189 41.4685C161.189 41.4685 160.667 39.9036 159.624 38.8604C158.581 37.2955 154.929 36.7737 154.929 34.6874C154.929 32.6007 152.843 28.9495 149.713 28.4276C146.583 27.9058 142.41 29.9926 142.41 29.9926C142.41 29.9926 138.758 28.9495 139.802 25.8196C140.845 22.6897 148.148 10.6919 157.538 7.56203C166.928 5.47527 177.361 12.2569 179.969 17.9948C182.055 23.7323 182.577 35.7306 182.577 35.7306Z" fill="#415A6B"/>
<path d="M165.362 57.1179C166.927 56.5961 167.971 55.5529 169.014 56.0747C169.536 56.0747 170.057 56.5966 170.579 56.5966C172.144 49.815 171.101 41.9902 171.101 41.9902C171.101 48.2495 165.362 57.1179 165.362 57.1179Z" fill="#ECBC7A"/>
<path d="M115.806 93.1113C115.806 93.1113 119.979 92.5895 121.544 94.6763C123.109 96.763 123.109 103.544 117.892 105.109H128.847C128.847 105.109 129.89 98.8493 126.76 95.7194C123.631 92.5895 120.501 92.0682 115.806 93.1113Z" fill="#F3F3F3"/>
<path d="M129.89 81.1143V98.3287C128.847 98.8505 127.804 99.3718 127.282 100.415C125.717 97.8073 123.631 94.1556 118.936 93.1125C118.414 89.4608 117.893 86.8527 117.893 84.766C117.893 83.7228 117.893 82.6792 117.893 81.6361H129.89V81.1143Z" fill="#415A6B"/>
<path d="M147.627 109.804C147.627 109.804 145.54 109.282 142.932 109.282C140.324 109.282 138.237 110.326 136.15 109.282C134.585 108.239 134.063 107.717 132.498 108.239C131.455 108.761 130.933 109.282 130.412 109.282C129.89 109.282 129.369 109.804 129.369 109.282C128.847 108.761 127.804 108.239 127.804 107.717C127.804 107.717 126.76 106.674 127.282 106.152C127.282 106.152 126.76 105.109 126.76 104.588C126.76 104.588 124.673 104.066 125.717 101.979C126.76 99.8927 129.369 98.8496 130.412 97.8064C131.977 96.7633 133.02 96.2415 134.063 96.7633C135.628 97.2851 140.323 99.8932 141.366 99.8932C142.409 100.415 156.494 100.415 156.494 100.415L155.972 109.805H147.627V109.804Z" fill="#FEDBAB"/>
<path d="M153.886 98.8496H148.67C148.67 98.8496 146.583 107.196 147.627 112.412L157.016 113.977L153.886 98.8496Z" fill="#F3F3F3"/>
<path d="M180.491 81.1141C180.491 81.1141 177.882 65.9865 181.534 58.6831C185.185 51.3797 196.14 51.3802 200.835 56.075C205.53 60.7699 209.181 71.7245 208.66 78.5061C208.138 85.2877 203.965 92.0688 203.965 97.2854C203.965 102.502 202.4 104.588 200.313 106.675C198.748 108.762 195.618 112.935 193.531 113.978C191.445 114.5 152.321 117.108 152.843 116.586C153.365 116.064 151.278 103.023 151.8 98.8499C151.8 98.8499 164.841 98.3281 166.927 98.3281C169.014 98.8499 170.057 98.3281 171.622 97.2849C173.187 96.7631 173.187 96.2418 174.23 96.7631C175.273 97.2849 177.36 97.2849 178.403 96.7631C179.446 96.2413 180.49 94.6763 180.49 94.6763C180.49 94.6763 178.925 87.8948 179.968 86.3298C181.012 84.7654 180.491 81.1141 180.491 81.1141Z" fill="#415A6B"/>
<path d="M97.0265 70.6805L93.8966 78.5052L88.6799 70.1587C94.4179 68.5938 97.0265 65.4639 97.0265 65.4639C97.0265 67.0293 97.0265 68.5942 97.0265 70.6805Z" fill="white"/>
<path d="M87.1151 70.1595C87.1151 70.1595 85.0283 71.7245 83.9852 73.8112C82.9421 75.898 81.8984 77.4629 81.8984 77.4629L79.2904 72.2463C78.7686 67.5515 78.2472 63.3784 77.2036 58.6836C77.2041 59.7262 82.4203 68.5946 87.1151 70.1595Z" fill="white"/>
<path d="M74.5955 51.9015H75.6387C75.6387 51.9015 73.5519 48.7716 74.5955 46.6849C75.6392 44.5981 72.5088 38.3383 76.1605 39.382C79.8122 40.4251 88.68 37.2952 91.2881 34.6871C93.8962 32.0791 94.9398 32.0791 95.983 33.1222C97.0261 34.1653 98.0697 38.3388 98.0697 38.3388C98.0697 38.3388 97.0266 34.1658 95.983 31.5572C94.9398 28.9492 97.0261 26.3406 88.1582 23.7325C79.2904 21.1244 71.4656 24.7757 68.8571 31.5572C66.2485 38.3388 69.3789 45.1199 71.4652 47.2067C73.0306 48.7716 74.5955 51.9015 74.5955 51.9015Z" fill="#415A6B"/>
<path d="M56.338 100.415L65.7277 100.937C65.7277 100.937 62.5978 102.502 62.5978 107.197C62.5978 111.891 63.6409 111.891 63.6409 111.891L47.9915 109.283C48.5133 109.805 55.2949 100.415 56.338 100.415Z" fill="#F3F3F3"/>
<path d="M63.1196 100.415C57.3817 103.023 55.2949 105.11 54.2518 111.37L27.6477 109.805C27.6477 109.805 28.1695 98.8504 28.6908 95.7205C29.2122 92.5906 31.2989 87.3739 34.4288 84.2441C37.0369 81.1142 42.7753 73.2894 43.2967 71.7245C43.8185 70.1595 45.3834 68.5946 45.9047 67.5515C46.4266 66.5083 47.4697 62.8566 47.9915 59.7267C48.5133 56.075 51.6432 55.5537 51.6432 55.5537C51.6432 55.5537 54.2513 59.7267 53.73 65.9865C53.73 72.7681 57.3817 78.5061 57.3817 82.6791C57.3817 83.7222 56.8598 85.809 56.8598 88.9389L52.6868 98.3286L54.2518 98.8504L63.1196 100.415Z" fill="#415A6B"/>
<path d="M81.899 118.15H73.5525V224.567H81.899V118.15Z" fill="#F3705A"/>
<path d="M152.321 117.107H3.6517C1.56494 117.107 0 115.542 0 113.455C0 111.369 1.56494 109.804 3.6517 109.804H152.321C154.408 109.804 155.973 111.369 155.973 113.455C155.973 115.542 154.408 117.107 152.321 117.107Z" fill="#F3705A"/>
<path d="M152.321 117.108C103.808 120.76 54.2517 120.238 3.65161 117.108H152.321Z" fill="#F05540"/>
<path d="M121.544 231.348H33.907C33.907 227.696 37.0369 224.566 40.6886 224.566H114.763C118.414 224.567 121.544 227.697 121.544 231.348Z" fill="#F3705A"/>
<path d="M113.198 226.132L102.765 229.783L95.4622 220.394C95.4622 220.394 99.6352 216.221 101.722 212.047C102.765 209.96 104.33 207.352 105.374 205.266H105.895C110.59 206.309 116.328 208.917 117.893 210.482C116.328 213.09 112.676 220.915 113.198 226.132Z" fill="#E8EAE9"/>
<path d="M70.9444 233.435H67.2927C67.2927 233.435 65.7278 235.521 66.2496 236.043C66.7714 236.564 77.726 240.737 85.0289 242.302C91.8105 243.867 101.2 241.259 102.765 239.694V242.302H113.198C114.763 242.302 115.806 241.259 115.806 239.694V236.043L112.154 233.435H70.9444Z" fill="#344A5E"/>
<path d="M95.9835 219.351C95.9835 219.351 98.5916 219.351 100.157 221.959C101.722 224.567 104.33 226.132 106.416 226.653C108.503 227.175 113.198 225.089 113.719 223.524C113.719 223.524 115.806 232.391 115.284 236.043C115.284 236.043 106.938 236.043 101.2 238.651C94.9399 240.738 92.8532 242.303 86.0721 240.738C79.2905 239.173 68.3359 235 67.2927 233.435C67.2927 233.435 71.9876 232.913 76.6824 232.392C81.3772 231.871 86.0721 226.654 89.2019 224.045C92.3318 220.916 95.9835 219.351 95.9835 219.351Z" fill="#415A6B"/>
<path d="M115.284 81.1143H65.7277C64.1628 81.1143 63.1196 82.1574 63.1196 83.7223L66.7713 109.805H113.72L117.371 83.7223C117.893 82.6792 116.328 81.1143 115.284 81.1143Z" fill="#CED6E0"/>
<path d="M90.7668 97.2852C92.2072 97.2852 93.3748 96.5845 93.3748 95.7202C93.3748 94.8559 92.2072 94.1553 90.7668 94.1553C89.3264 94.1553 88.1587 94.8559 88.1587 95.7202C88.1587 96.5845 89.3264 97.2852 90.7668 97.2852Z" fill="#ADB3BA"/>
</g>
<defs>
<clipPath id="clip0">
<rect width="250" height="250" fill="white"/>
</clipPath>
</defs>
</svg>
