<svg width="262" height="262" viewBox="0 0 262 262" fill="none" xmlns="http://www.w3.org/2000/svg">
<g clip-path="url(#clip0)">
<path d="M243.286 63.5109C254.024 83.8615 262 106.314 262 131C262 203.349 203.349 262 131 262C58.6506 262 0 203.349 0 131C0 58.6506 58.6506 0 131 0C156.135 0 180.635 7.69164 200.578 19.9642C200.578 19.9642 231.502 41.176 243.286 63.5109Z" fill="#C0543C"/>
<path d="M262 131C262 106.314 254.024 83.8615 243.286 63.5109C231.502 41.176 200.578 19.9642 200.578 19.9642C180.635 7.69164 156.135 0 131 0V262C203.349 262 262 203.349 262 131Z" fill="#701703"/>
<path d="M207.069 93.2463C212.658 105.166 215.9 116.926 215.9 131C215.9 177.889 177.889 215.9 131 215.9C84.1103 215.9 46.0999 177.889 46.0999 131C46.0999 84.1111 84.1113 46.0996 131 46.0996C145.811 46.0996 158.565 49.2564 170.686 55.9231C170.686 55.9236 196.477 70.657 207.069 93.2463Z" fill="#FEFEFE"/>
<path d="M215.9 131C215.9 116.926 212.659 105.166 207.07 93.2463C196.477 70.6575 170.687 55.9236 170.687 55.9236C158.565 49.2569 145.811 46.0996 131 46.0996V215.9C177.889 215.9 215.9 177.889 215.9 131Z" fill="#E1EDF8"/>
<path d="M131 170.964C153.072 170.964 170.964 153.071 170.964 130.999C170.964 108.928 153.072 91.0352 131 91.0352C108.928 91.0352 91.0359 108.928 91.0359 130.999C91.0359 153.071 108.928 170.964 131 170.964Z" fill="#C0543C"/>
<path d="M170.964 130.999C170.964 108.928 153.071 91.0352 131 91.0352V170.964C153.071 170.964 170.964 153.071 170.964 130.999Z" fill="#701703"/>
<path d="M129.385 141.635C127.309 141.635 125.234 140.839 123.655 139.251C120.512 136.087 120.529 130.973 123.693 127.83L223.355 28.8226C226.52 25.6797 231.633 25.6971 234.776 28.86C237.919 32.024 237.902 37.1376 234.738 40.2805L135.076 139.288C133.5 140.853 131.442 141.635 129.385 141.635Z" fill="#00337A"/>
<path d="M234.557 24.8626L227.2 3.61705C225.983 0.103072 221.508 -0.925482 218.879 1.70373L177.119 43.4641C175.907 44.6758 175.395 46.4203 175.759 48.0946L181.89 76.3159C182.29 78.1581 183.686 79.6226 185.506 80.1108L214.503 87.892C216.241 88.3587 218.097 87.8618 219.37 86.5892L260.524 45.4352C263.035 42.9237 262.228 38.6718 258.971 37.2554L237.308 27.8331C236.015 27.2712 235.018 26.1941 234.557 24.8626Z" fill="#6689E3"/>
<path d="M234.776 28.8605C234.714 28.7986 234.647 28.7459 234.584 28.6865L123.846 139.425C125.4 140.893 127.389 141.635 129.384 141.635C131.442 141.635 133.5 140.853 135.075 139.289L234.738 40.2816C237.902 37.1381 237.919 32.025 234.776 28.8605Z" fill="#093763"/>
<path d="M258.956 37.2707L237.292 27.8485C236.871 27.6653 236.484 27.4217 236.134 27.1377L183.901 79.3693C184.378 79.7055 184.91 79.9701 185.491 80.1262L214.488 87.9074C216.226 88.3741 218.082 87.8772 219.355 86.6045L260.509 45.4506C263.02 42.9391 262.213 38.6872 258.956 37.2707Z" fill="#3F62BC"/>
</g>
<defs>
<clipPath id="clip0">
<rect width="262" height="262" fill="white"/>
</clipPath>
</defs>
</svg>
