<svg width="250" height="250" viewBox="0 0 250 250" fill="none" xmlns="http://www.w3.org/2000/svg">
<path d="M164.555 240.765V29.8032C164.555 24.7026 160.42 20.5684 155.32 20.5684H26.3452C21.2446 20.5684 17.1104 24.7031 17.1104 29.8032V240.765C17.1104 245.865 21.2451 250 26.3452 250H155.32C160.42 250 164.555 245.865 164.555 240.765Z" fill="#FFC250"/>
<path d="M185.599 20.5684H154.691C159.792 20.5684 163.927 24.7031 163.927 29.8032V240.765C163.927 245.865 159.792 250 154.691 250H185.599C190.7 250 194.834 245.865 194.834 240.765V29.8037C194.834 24.7031 190.7 20.5684 185.599 20.5684Z" fill="#EAB14D"/>
<path d="M32.2046 231.605V38.9639C32.2046 37.1406 33.6826 35.6631 35.5054 35.6631H176.439C178.262 35.6631 179.74 37.1411 179.74 38.9639V231.605C179.74 233.428 178.262 234.905 176.439 234.905H35.5054C33.6821 234.905 32.2046 233.428 32.2046 231.605Z" fill="#F5F5F5"/>
<path d="M176.439 35.6631H145.531C147.354 35.6631 148.832 37.1411 148.832 38.9639V231.605C148.832 233.428 147.354 234.905 145.531 234.905H176.439C178.262 234.905 179.74 233.427 179.74 231.605V38.9639C179.74 37.1411 178.262 35.6631 176.439 35.6631Z" fill="#EAEAEA"/>
<path d="M125.591 11.4932V6.63135C125.591 2.96924 122.622 0 118.959 0H92.9844C89.3218 0 86.353 2.96924 86.353 6.63135V11.4932C86.353 12.9907 85.1387 14.2051 83.6411 14.2051H72.8306C69.2344 14.2051 66.3188 17.1206 66.3188 20.7168V35.6631H145.625V20.7168C145.625 17.1206 142.709 14.2051 139.113 14.2051H128.303C126.805 14.2051 125.591 12.9907 125.591 11.4932Z" fill="#C2D0DA"/>
<path d="M51.4053 89.2539V60.1826C51.4053 56.9619 54.0166 54.3506 57.2373 54.3506H86.3086C89.5293 54.3506 92.1406 56.9619 92.1406 60.1826V89.2539C92.1406 92.4746 89.5293 95.0859 86.3086 95.0859H57.2373C54.0161 95.0859 51.4053 92.4746 51.4053 89.2539Z" fill="#66B49D"/>
<path d="M51.4053 149.82V120.749C51.4053 117.528 54.0166 114.917 57.2373 114.917H86.3086C89.5293 114.917 92.1406 117.528 92.1406 120.749V149.82C92.1406 153.041 89.5293 155.652 86.3086 155.652H57.2373C54.0161 155.652 51.4053 153.041 51.4053 149.82Z" fill="#66B49D"/>
<path d="M51.4053 210.386V181.314C51.4053 178.094 54.0166 175.482 57.2373 175.482H86.3086C89.5293 175.482 92.1406 178.094 92.1406 181.314V210.386C92.1406 213.606 89.5293 216.218 86.3086 216.218H57.2373C54.0161 216.218 51.4053 213.607 51.4053 210.386Z" fill="#66B49D"/>
<path d="M69.3121 85.1286C69.3077 85.1286 69.3038 85.1286 69.2994 85.1286C67.6339 85.1247 66.0543 84.3181 65.0733 82.9719L60.668 76.9221C59.4415 75.2375 59.8126 72.8776 61.4971 71.6511C63.1817 70.425 65.5416 70.7961 66.7676 72.4802L69.3218 75.9885L76.7901 65.842C78.0255 64.1638 80.3868 63.8054 82.0645 65.0402C83.7427 66.2751 84.1016 68.6369 82.8663 70.3151L73.5342 82.9934C72.5504 84.3308 70.9722 85.1286 69.3121 85.1286Z" fill="#F6F9F9"/>
<path d="M69.3116 147.013C69.3067 147.013 69.3023 147.013 69.2979 147.013C67.6324 147.009 66.0528 146.203 65.0723 144.856L60.668 138.807C59.4415 137.122 59.8126 134.762 61.4971 133.536C63.1817 132.31 65.5416 132.681 66.7676 134.365L69.3218 137.873L76.7901 127.727C78.0255 126.049 80.3868 125.69 82.0645 126.925C83.7427 128.16 84.1016 130.522 82.8663 132.2L73.5342 144.878C72.5504 146.216 70.9722 147.013 69.3116 147.013Z" fill="#F6F9F9"/>
<path d="M69.3114 206.262C69.307 206.262 69.3026 206.262 69.2987 206.262C67.6337 206.258 66.0536 205.452 65.0731 204.106L60.6679 198.055C59.4413 196.371 59.8129 194.011 61.4974 192.785C63.183 191.558 65.5419 191.93 66.768 193.614L69.3217 197.122L76.7904 186.976C78.0258 185.298 80.3871 184.939 82.0648 186.174C83.7431 187.409 84.1019 189.771 82.8666 191.449L73.5346 204.127C72.5497 205.464 70.9721 206.262 69.3114 206.262Z" fill="#F6F9F9"/>
<path d="M157.564 70.6074H110.926C108.843 70.6074 107.154 68.9185 107.154 66.835C107.154 64.7515 108.843 63.0625 110.926 63.0625H157.564C159.648 63.0625 161.337 64.7515 161.337 66.835C161.337 68.9185 159.648 70.6074 157.564 70.6074Z" fill="#DDEAFB"/>
<path d="M134.246 86.3721H110.927C108.843 86.3721 107.154 84.6831 107.154 82.5996C107.154 80.5161 108.843 78.8271 110.927 78.8271H134.246C136.329 78.8271 138.018 80.5161 138.018 82.5996C138.018 84.6831 136.329 86.3721 134.246 86.3721Z" fill="#DDEAFB"/>
<path d="M142.219 131.174H110.927C108.843 131.174 107.154 129.485 107.154 127.401C107.154 125.318 108.843 123.629 110.927 123.629H142.219C144.302 123.629 145.991 125.318 145.991 127.401C145.991 129.485 144.302 131.174 142.219 131.174Z" fill="#DDEAFB"/>
<path d="M134.246 146.938H110.927C108.843 146.938 107.154 145.25 107.154 143.166C107.154 141.083 108.843 139.394 110.927 139.394H134.246C136.329 139.394 138.018 141.083 138.018 143.166C138.018 145.25 136.329 146.938 134.246 146.938Z" fill="#DDEAFB"/>
<path d="M218.218 98.4951L214.514 93.6152L200.654 84.8384L195.326 83.999L124.357 196.144C122.645 198.848 121.388 201.815 120.638 204.927C129.273 205.034 137.11 209.997 140.899 217.757C143.391 215.749 145.536 213.344 147.249 210.64L218.218 98.4951Z" fill="#FC8086"/>
<path d="M228.237 63.9611L222.249 60.1686C217.58 57.2121 211.398 58.6012 208.443 63.2707L202.952 71.9489L204.704 75.4806L221.369 86.0339L225.844 86.445L231.339 77.7614C234.292 73.0944 232.904 66.9162 228.237 63.9611Z" fill="#8C9BA6"/>
<path d="M195.334 83.9668L202.963 71.9169L225.859 86.4131L218.23 98.463L195.334 83.9668Z" fill="#C9E2E7"/>
<path d="M140.899 217.758L120.691 234.042C117.841 236.339 113.699 233.717 114.557 230.158L120.638 204.928C129.273 205.034 137.111 209.998 140.899 217.758Z" fill="#7C8B96"/>
<path d="M135.599 210.766L209.993 93.2866L203.618 89.25L129.224 206.729C131.558 207.713 133.711 209.077 135.599 210.766Z" fill="#FB636F"/>
</svg>
