<svg width="250" height="250" viewBox="0 0 250 250" fill="none" xmlns="http://www.w3.org/2000/svg">
<g clip-path="url(#clip0)">
<path d="M130.96 98.0057L121.878 91.268L75.0041 43.7941L80.1306 38.8131C83.5002 35.4445 82.9138 29.7311 78.8127 27.2414L39.4086 3.65749C29.1547 -2.34883 16.1172 -0.737509 7.4751 7.61207C-0.727991 16.1086 -2.3398 29.1457 3.66652 39.5455L27.2504 78.6572C29.5937 82.4648 35.1601 83.6372 38.6766 79.9751L43.8031 74.9951L90.2385 121.59L97.7091 131.258C100.492 134.773 105.619 135.066 108.695 131.843L131.547 108.992C134.769 105.916 134.33 100.789 130.96 98.0057Z" fill="#C5C9F7"/>
<path d="M183.255 139.461L153.812 116.61C150.882 114.412 146.781 114.705 144.144 117.342L130.521 130.965L116.898 144.442C114.261 146.932 113.969 151.18 116.166 154.11L139.164 183.7C141.947 187.068 147.074 187.508 150.15 184.285L166.673 166.895L183.841 150.447C187.064 147.371 186.624 142.244 183.255 139.461Z" fill="#C5C9F7"/>
<path d="M131.547 108.993L120.121 120.419L7.4751 7.61207C16.1172 -0.737509 29.1542 -2.34883 39.4086 3.65749L78.8127 27.2414C82.9138 29.7311 83.5002 35.4445 80.1306 38.8131L75.0041 43.7941L121.878 91.268L130.96 98.0058C134.33 100.789 134.769 105.917 131.547 108.993Z" fill="#A8AFF1"/>
<path d="M183.841 150.447L166.673 166.895L130.521 130.965L144.144 117.342C146.781 114.705 150.882 114.412 153.812 116.609L183.255 139.461C186.624 142.244 187.064 147.371 183.841 150.447Z" fill="#A8AFF1"/>
<path d="M239.182 187.696C212.375 160.889 225.59 172.42 178.129 135.506L156.742 157.039L135.209 178.572C172.854 226.619 161.692 213.769 186.301 238.233C193.919 245.996 204.173 249.951 214.133 249.951C221.458 249.951 228.635 247.753 234.642 243.506C236.253 242.334 237.864 241.016 239.183 239.404C245.335 233.399 249.144 225.342 249.876 216.699C250.754 205.86 246.945 195.313 239.182 187.696Z" fill="#FD003A"/>
<path d="M249.876 216.699C249.143 225.342 245.334 233.398 239.183 239.404L156.742 157.039L178.129 135.506C225.589 172.42 212.376 160.889 239.182 187.696C246.945 195.313 250.754 205.859 249.876 216.699Z" fill="#E50027"/>
<path d="M245.012 29.1582C243.987 27.108 241.936 25.4961 239.593 25.2037C237.248 24.7637 234.905 25.4961 233.293 27.2544L214.397 46.1504C211.614 48.7871 206.779 48.7871 203.996 46.1504H203.851C201.067 43.2207 201.067 38.6797 203.851 35.7495L222.893 16.7066C224.651 15.0953 225.383 12.6056 224.944 10.2613C224.504 7.91808 223.04 6.01379 220.842 4.98792C201.213 -4.38704 177.629 -0.285497 162.542 15.0953C148.333 29.1573 143.792 49.9585 150.383 68.4154L68.4663 150.538C50.0103 144.093 29.0631 148.487 14.8537 162.55C-0.380158 177.931 -4.33571 201.514 5.03974 220.997C7.23651 225.538 13.2428 226.417 16.7584 222.901L35.6544 204.005C38.584 201.222 43.125 201.222 46.0552 204.151C48.9849 206.934 49.1319 211.329 46.0552 214.405L27.1593 233.301C23.4972 236.817 24.5216 242.822 29.0636 245.02C36.0938 248.389 43.7115 250 51.1812 250C64.5117 250 77.6947 244.874 87.6566 235.059C101.572 220.85 106.113 199.903 99.5218 181.592L181.585 99.6179C200.042 106.209 220.843 101.668 234.905 87.4593C250.286 72.2245 254.387 48.7876 245.012 29.1582Z" fill="#E1E4FB"/>
<path d="M234.904 87.4596C220.841 101.668 200.041 106.209 181.584 99.6182L99.5206 181.592C106.112 199.903 101.571 220.85 87.6554 235.06C77.694 244.873 64.511 250 51.1805 250C43.7108 250 36.0931 248.389 29.0624 245.02C24.5204 242.822 23.496 236.817 27.1581 233.301L46.054 214.404C49.1307 211.329 48.9837 206.934 46.054 204.15L203.996 46.1506C206.779 48.7873 211.613 48.7873 214.397 46.1506L233.293 27.2547C234.904 25.4959 237.248 24.764 239.592 25.2039C241.936 25.4964 243.987 27.1082 245.012 29.1585C254.386 48.7873 250.285 72.2243 234.904 87.4596Z" fill="#C5C9F7"/>
<path d="M217.796 218.018C215.159 220.069 211.35 220.655 208.128 217.432L178.831 188.135C175.608 184.913 176.194 181.104 178.245 178.467C180.736 175.391 185.423 174.22 189.085 177.882L218.382 207.179C222.043 210.84 220.872 215.527 217.796 218.018Z" fill="#E50027"/>
<path d="M217.796 218.018L178.245 178.467C180.736 175.391 185.423 174.22 189.085 177.882L218.381 207.179C222.043 210.84 220.872 215.527 217.796 218.018Z" fill="#C1001F"/>
</g>
<defs>
<clipPath id="clip0">
<rect width="250" height="250" fill="white"/>
</clipPath>
</defs>
</svg>
