<svg width="262" height="262" viewBox="0 0 262 262" fill="none" xmlns="http://www.w3.org/2000/svg">
<path d="M76.7291 51.9942L61.4308 36.6642C57.882 33.1082 53.1614 31.1504 48.1379 31.1504C43.1143 31.1504 38.3937 33.1087 34.8455 36.6642L23.756 47.7777C16.4563 55.0917 16.4563 66.9932 23.756 74.3077L39.0866 89.67C40.5859 91.1724 42.5525 91.9236 44.52 91.9236C46.4814 91.9236 48.4439 91.176 49.9422 89.6813C52.9429 86.6867 73.7218 65.8398 76.7184 62.8493C79.7186 59.8552 79.7237 54.9955 76.7291 51.9942Z" fill="#8191A0"/>
<path d="M131 1.53516C126.761 1.53516 123.324 4.97186 123.324 9.21094V33.7734C123.324 38.0125 126.761 41.4492 131 41.4492C135.239 41.4492 138.676 38.0125 138.676 33.7734V9.21094C138.676 4.97186 135.239 1.53516 131 1.53516Z" fill="#8191A0"/>
<path d="M149.934 0H112.066C107.827 0 104.391 3.4367 104.391 7.67578C104.391 11.9149 107.827 15.3516 112.066 15.3516H149.934C154.173 15.3516 157.609 11.9149 157.609 7.67578C157.609 3.4367 154.173 0 149.934 0Z" fill="#D45C41"/>
<path d="M131 0H112.066C107.827 0 104.391 3.4367 104.391 7.67578C104.391 11.9149 107.827 15.3516 112.066 15.3516H131V0Z" fill="#F88A71"/>
<path d="M214.228 60.6969C191.998 38.4208 162.44 26.1523 131 26.1523C99.5595 26.1523 70.0016 38.4208 47.7715 60.6969C25.5455 82.969 13.3052 112.581 13.3052 144.076C13.3052 175.571 25.5455 205.183 47.7715 227.455C70.0016 249.731 99.5595 261.999 131 261.999C162.44 261.999 191.998 249.731 214.228 227.455C236.454 205.183 248.695 175.571 248.695 144.076C248.695 112.581 236.454 82.969 214.228 60.6969Z" fill="#D45C41"/>
<path d="M131 26.1523C99.5595 26.1523 70.0016 38.4208 47.7715 60.6969C25.5455 82.969 13.3052 112.581 13.3052 144.076C13.3052 175.571 25.5455 205.183 47.7715 227.455C70.0016 249.731 99.5595 261.999 131 261.999V26.1523Z" fill="#F88A71"/>
<path d="M131 55.541C82.2752 55.541 42.6344 95.2576 42.6344 144.076C42.6344 192.895 82.2752 232.612 131 232.612C179.725 232.612 219.366 192.895 219.366 144.076C219.366 95.2576 179.725 55.541 131 55.541Z" fill="#E1EDF8"/>
<path d="M131 55.541C82.2752 55.541 42.6344 95.2576 42.6344 144.076C42.6344 192.895 82.2752 232.612 131 232.612V55.541Z" fill="#FEFEFE"/>
<path d="M131 74.7141C135.239 74.7141 138.676 71.2774 138.676 67.0383V55.8787C136.145 55.6597 133.586 55.541 131 55.541C128.414 55.541 125.855 55.6597 123.324 55.8787V67.0383C123.324 71.2774 126.761 74.7141 131 74.7141Z" fill="#8191A0"/>
<path d="M131 213.438C126.761 213.438 123.324 216.874 123.324 221.113V232.273C125.855 232.492 128.414 232.611 131 232.611C133.586 232.611 136.145 232.492 138.676 232.273V221.113C138.676 216.874 135.239 213.438 131 213.438Z" fill="#8191A0"/>
<path d="M219.03 136.4H208.038C203.799 136.4 200.362 139.837 200.362 144.076C200.362 148.315 203.799 151.752 208.038 151.752H219.03C219.248 149.222 219.366 146.662 219.366 144.076C219.366 141.49 219.248 138.931 219.03 136.4Z" fill="#8191A0"/>
<path d="M61.6381 144.076C61.6381 139.837 58.2014 136.4 53.9623 136.4H42.9701C42.7521 138.931 42.6344 141.49 42.6344 144.076C42.6344 146.662 42.7521 149.222 42.9701 151.752H53.9623C58.2014 151.752 61.6381 148.315 61.6381 144.076Z" fill="#8191A0"/>
<path d="M149.934 139.646H139.105V108.602C139.105 104.362 135.668 100.926 131.429 100.926C127.19 100.926 123.753 104.362 123.753 108.602V147.322C123.753 151.561 127.19 154.998 131.429 154.998H149.934C154.173 154.998 157.609 151.561 157.609 147.322C157.609 143.083 154.173 139.646 149.934 139.646Z" fill="#8191A0"/>
</svg>
