<svg width="250" height="250" viewBox="0 0 250 250" fill="none" xmlns="http://www.w3.org/2000/svg">
<g clip-path="url(#clip0)">
<path d="M81.8627 169.118C44.8333 169.118 14.7058 199.244 14.7058 236.275V250.001H109.027L78.9215 200.858L102.941 169.118H81.8627Z" fill="#525263"/>
<path d="M235.294 236.275C235.294 199.246 205.168 169.118 168.137 169.118H147.059L168.627 203.105L140.972 250.001H235.294C235.294 245.2 235.294 241.076 235.294 236.275Z" fill="#454554"/>
<path d="M102.941 169.118L99.1827 209.559L109.027 250.001H125L130.065 218.791L125 191.177L102.941 169.118Z" fill="#7DD5F4"/>
<path d="M147.059 169.118L125 191.177V250.001H140.972L150.735 209.559L147.059 169.118Z" fill="#6699FF"/>
<path d="M140.972 250.001C145.419 244.13 173.26 207.38 177.737 201.471C174.024 197.556 150.795 173.059 147.059 169.118C146.373 178.231 141.695 240.397 140.972 250.001Z" fill="#2E2E2E"/>
<path d="M102.941 169.118C99.2289 173.033 75.9999 197.53 72.2632 201.471C76.7102 207.342 104.551 244.091 109.027 250.001C108.342 240.887 103.664 178.722 102.941 169.118Z" fill="#454554"/>
<path d="M102.941 142.104V169.118C102.941 181.3 112.817 191.177 125 191.177L128.431 165.441L125 147.059L113.971 139.706L102.941 142.104Z" fill="#FEC3A8"/>
<path d="M147.059 169.118C147.059 163.593 147.059 147.634 147.059 142.105L136.029 139.706L125 147.059V191.177C137.182 191.177 147.059 181.301 147.059 169.118Z" fill="#FEAB9B"/>
<path d="M176.47 88.235H205.882C205.882 84.6767 205.882 62.4051 205.882 58.8232C202.324 58.8232 180.052 58.8232 176.47 58.8232L168.627 73.5291L176.47 88.235Z" fill="#454554"/>
<path d="M113.971 40.293L73.6205 48.4341C73.472 50.9895 73.5514 51.9067 73.5293 58.8229L67.8921 72.5484L73.5293 88.2346V95.5876C73.5293 124.013 96.5725 147.058 125 147.058L132.353 98.6131L125 50.168L113.971 40.293Z" fill="#FED9B6"/>
<path d="M176.471 95.5878V73.529C175.902 55.3996 178.12 46.6726 173.284 33.6074L125 50.1687V110.294L120.221 117.279L125 125V147.058C153.425 147.058 176.471 124.015 176.471 95.5878Z" fill="#FEC3A8"/>
<path d="M125 0C97.3671 0 75.1793 21.649 73.6205 48.4348C86.0916 53.8392 100.081 51.8245 110.414 44.0191C114.876 46.8525 119.807 48.9348 124.999 50.1691L132.352 25.0848L125 0Z" fill="#A05F4B"/>
<path d="M173.284 33.6078C165.977 13.8618 147.015 0 125 0V50.1691C143.02 54.4529 161.767 47.9647 173.284 33.6078Z" fill="#804040"/>
<path d="M125 125C122.718 125 46.3979 125 44.1176 125C44.1176 115.101 44.1176 94.0016 44.1176 88.2349L51.4705 82.3525L58.8234 88.2349V110.294H125V125Z" fill="#454554"/>
<path d="M73.5293 88.235C69.971 88.235 47.6994 88.235 44.1176 88.235C44.1176 84.6767 44.1176 62.4051 44.1176 58.8232H73.5293V88.235Z" fill="#525263"/>
</g>
<defs>
<clipPath id="clip0">
<rect width="250" height="250" fill="white"/>
</clipPath>
</defs>
</svg>
