<svg width="262" height="262" viewBox="0 0 262 262" fill="none" xmlns="http://www.w3.org/2000/svg">
<path d="M258.945 148.398L214.426 212.875C205.829 224.389 192.012 231.297 177.581 231.297H46.0695L38.0862 150.548L46.0695 143.333C57.7367 133.047 65.4125 125.986 80.457 122.454C98.4178 118.31 116.277 123.376 128.098 134.122C131.168 136.732 133.011 139.188 136.848 139.188H138.691C174.306 139.188 142.119 139.188 177.581 139.188C186.025 139.188 192.933 146.096 192.933 154.54C192.933 162.983 186.025 169.891 177.581 169.891H146.366C142.067 169.891 138.691 173.268 138.691 177.567C138.691 181.866 142.067 185.243 146.366 185.243H182.648C185.565 185.243 191.091 183.401 194.008 180.33L235.457 128.749C240.676 123.069 249.427 122.148 255.721 126.753C262.628 131.819 264.011 141.643 258.945 148.398Z" fill="#FEDBAB"/>
<path d="M138.691 177.566V139.188C174.306 139.188 142.119 139.188 177.581 139.188C186.025 139.188 192.933 146.096 192.933 154.539C192.933 162.982 186.025 169.891 177.581 169.891H146.366C142.067 169.891 138.691 173.267 138.691 177.566Z" fill="#FEC478"/>
<path d="M258.944 148.398L214.425 212.875C205.829 224.389 192.012 231.297 177.581 231.297H138.691V177.567C138.691 181.866 142.067 185.242 146.366 185.242H182.648C185.564 185.242 191.091 183.4 194.008 180.33L235.457 128.749C240.676 123.069 249.426 122.147 255.721 126.753C262.628 131.819 264.01 141.643 258.944 148.398Z" fill="#FEC478"/>
<path d="M46.8791 257.757L0.824389 165.648C-1.07204 161.855 0.464651 157.245 4.25751 155.349L21.2282 146.863C32.5996 141.189 46.4441 145.807 52.1262 157.163L84.4485 221.807C90.1413 233.193 85.5348 247.012 74.1491 252.705L57.1784 261.19C53.3472 263.093 48.7653 261.519 46.8791 257.757Z" fill="#3F62BC"/>
<path d="M138.691 46.0547C113.36 46.0547 92.1241 67.2905 92.1241 92.6211V100.809C92.1241 105.108 95.501 108.484 99.7999 108.484H177.581C181.88 108.484 185.257 105.108 185.257 100.809V92.6211C185.257 67.2905 164.021 46.0547 138.691 46.0547Z" fill="#6689E3"/>
<path d="M185.257 92.6211V100.809C185.257 105.108 181.88 108.484 177.581 108.484H138.691V46.0547C164.021 46.0547 185.257 67.2905 185.257 92.6211Z" fill="#3F62BC"/>
<path d="M138.691 0C121.804 0 107.476 13.8169 107.476 30.7031C107.476 47.5893 121.804 61.4062 138.691 61.4062C155.577 61.4062 169.905 47.5893 169.905 30.7031C169.905 13.8169 155.577 0 138.691 0Z" fill="#3F62BC"/>
<path d="M169.905 30.7031C169.905 47.5893 155.577 61.4062 138.691 61.4062V0C155.577 0 169.905 13.8169 169.905 30.7031Z" fill="#6689E3"/>
</svg>
