<svg width="250" height="250" viewBox="0 0 250 250" fill="none" xmlns="http://www.w3.org/2000/svg">
<path d="M250 150.03V99.9702L230.508 94.3042C228.268 86.5879 225.186 79.1494 221.308 72.104L231.087 54.3101L195.69 18.9126L177.896 28.6919C170.85 24.8145 163.412 21.7319 155.695 19.4912L150.03 0H125L66.4062 125L125 250H150.03L155.696 230.509C163.412 228.269 170.85 225.186 177.896 221.308L195.69 231.086L231.087 195.689L221.309 177.896C225.186 170.85 228.269 163.412 230.509 155.695L250 150.03Z" fill="#3F62BC"/>
<path d="M99.9702 0L94.3042 19.4912C86.5884 21.7314 79.1504 24.8145 72.1045 28.6919L54.3101 18.9131L18.9131 54.3105L28.6919 72.1045C24.8149 79.1504 21.7319 86.5889 19.4912 94.3047L0 99.9707V150.03L19.4912 155.696C21.7314 163.412 24.8145 170.85 28.6919 177.896L18.9131 195.69L54.3101 231.087L72.104 221.309C79.1504 225.186 86.5884 228.269 94.3047 230.509L99.9702 250H125V0H99.9702Z" fill="#B0C4F9"/>
<path d="M125 37.1094L75.1392 125L161.623 204.893C191.853 190.98 212.891 160.4 212.891 125C212.891 76.5371 173.463 37.1094 125 37.1094Z" fill="#5A7587"/>
<path d="M125 37.1094C76.5371 37.1094 37.1094 76.5371 37.1094 125C37.1094 160.401 58.1475 190.98 88.3774 204.893H125V37.1094Z" fill="#5A7587"/>
<path d="M193.359 125C193.359 87.3066 162.693 56.6406 125 56.6406L86.2192 125L125 193.359C162.693 193.359 193.359 162.693 193.359 125Z" fill="#FFCE47"/>
<path d="M125 56.6406C87.3066 56.6406 56.6406 87.3066 56.6406 125C56.6406 162.693 87.3066 193.359 125 193.359V56.6406Z" fill="#FFE290"/>
<path d="M141.741 103.397L125 74.1006L110.352 125.37L141.741 103.397Z" fill="#092A40"/>
<path d="M125 74.1006L108.259 103.397L125 125.37V74.1006Z" fill="#235C81"/>
<path d="M103.027 160.161L161.621 138.187L141.741 103.397H125L103.027 160.161Z" fill="#FFF5D9"/>
<path d="M125 103.397H108.259L88.3789 138.188L125 160.161V103.397Z" fill="white"/>
<path d="M103.917 175.54L125 212.891C138.062 212.891 150.466 210.022 161.621 204.889V138.188H125L103.917 175.54Z" fill="#45A2E0"/>
<path d="M88.3789 138.188V204.888C99.5337 210.022 111.938 212.891 125 212.891V138.188H88.3789Z" fill="#4EB9FF"/>
</svg>
