<svg width="250" height="250" viewBox="0 0 250 250" fill="none" xmlns="http://www.w3.org/2000/svg">
<path d="M32.7769 3.66211C24.4458 3.66211 17.6924 10.4155 17.6924 18.7466V213.056C17.6924 221.387 24.4458 228.14 32.7769 228.14H174.601C182.932 228.14 189.686 221.387 189.686 213.056V50.1777C189.686 47.147 188.481 44.2402 186.338 42.0972L151.25 7.00928C149.108 4.86621 146.201 3.66211 143.17 3.66211H32.7769Z" fill="#F4F8F8"/>
<path d="M162.989 45.4438C161.853 45.4438 160.748 45.314 159.684 45.0762V213.056C159.684 221.387 152.93 228.14 144.599 228.14H174.601C182.932 228.14 189.686 221.386 189.686 213.056V50.1772C189.686 48.5278 189.327 46.9165 188.656 45.4438H162.989Z" fill="#E7ECF1"/>
<path d="M186.339 42.0967L151.251 7.00879C150.274 6.03174 149.138 5.25293 147.904 4.69141V30.3589C147.904 38.6899 154.657 45.4434 162.988 45.4434H188.656C188.095 44.2104 187.315 43.0737 186.339 42.0967Z" fill="#FC8086"/>
<path d="M201.732 199.86L147.853 167.954C145.09 166.316 144.178 162.749 145.815 159.986C145.815 159.986 147.146 157.739 148.571 155.333L137.671 148.884C130.48 144.757 127.118 143.994 120.63 146.502L113.56 149.235C109.257 150.899 104.43 150.497 100.461 148.146L81.5366 136.988L54.6587 182.357L78.8906 196.659C80.5322 197.632 81.9736 198.907 83.1387 200.418L91.3042 211.008C95.8145 216.283 105.123 223.125 111.093 226.663L142.259 245.126C146.373 247.563 151.683 246.204 154.12 242.09C156.557 237.977 155.198 232.666 151.084 230.229L160.821 235.998C164.935 238.435 170.246 237.076 172.683 232.962C175.12 228.848 173.761 223.538 169.647 221.101L176.138 224.946C180.252 227.383 185.563 226.024 188 221.911C190.437 217.797 189.078 212.486 184.964 210.049L192.908 214.755C197.021 217.192 202.331 215.833 204.768 211.72C207.204 207.607 205.845 202.297 201.732 199.86Z" fill="#FFECE3"/>
<path d="M201.732 199.86L183.164 188.864C182.755 190.453 181.967 191.991 180.681 193.326C177.388 196.746 172.101 197.302 168.016 194.882L162.734 191.753C162.546 191.642 162.306 191.676 162.156 191.835C162.003 191.998 161.991 192.243 162.12 192.426C164.33 195.57 164.637 199.842 162.551 203.363C159.713 208.154 153.528 209.736 148.738 206.898L144.588 204.422C144.425 204.324 144.215 204.355 144.086 204.496C143.954 204.639 143.949 204.854 144.066 205.009C146.502 208.224 146.876 212.732 144.618 216.393C141.708 221.107 135.439 222.458 130.673 219.633L127.265 217.615C126.589 217.214 125.74 217.248 125.098 217.702C124.456 218.156 124.138 218.946 124.296 219.716C124.78 222.081 124.425 224.624 123.098 226.864C121.962 228.78 120.288 230.173 118.386 230.985L142.063 245.012C146.238 247.486 151.808 246.169 154.203 241.949C156.525 237.856 155.15 232.64 151.084 230.231L160.625 235.884C164.801 238.357 170.37 237.041 172.765 232.82C175.087 228.727 173.712 223.511 169.647 221.102L175.942 224.832C180.117 227.306 185.687 225.99 188.082 221.769C190.404 217.676 189.03 212.459 184.963 210.051L192.712 214.642C196.887 217.115 202.456 215.799 204.851 211.579C207.172 207.485 205.798 202.269 201.732 199.86Z" fill="#FFDDCE"/>
<path d="M197.065 139.699L182.531 148.147C178.563 150.499 173.734 150.9 169.432 149.237L161.458 146.104C158.964 145.125 156.226 144.951 153.628 145.609L141.412 148.701C135.724 150.14 131.741 155.257 131.741 161.124V177.433C131.741 179.738 133.609 181.614 135.915 181.615C142.869 181.62 148.507 175.984 148.507 169.032V168.342L200.8 199.31C201.769 198.278 202.879 197.385 204.102 196.662L223.944 185.069L197.065 139.699Z" fill="#FCD0A3"/>
<path d="M204.818 152.785L202.024 163.148L170.716 181.493L200.8 199.308C201.769 198.276 202.879 197.384 204.101 196.66L223.943 185.067L204.818 152.785Z" fill="#FFB983"/>
<path d="M89.5107 206.268L84.6079 213.097C81.8203 216.98 76.4126 217.868 72.5298 215.081C68.647 212.293 67.7588 206.886 70.5464 203.003L75.4492 196.174C78.2368 192.291 83.6445 191.403 87.5273 194.19C91.4102 196.978 92.2983 202.385 89.5107 206.268Z" fill="#FCD0A3"/>
<path d="M108.983 208.826L98.6694 223.192C95.8818 227.074 90.4741 227.963 86.5913 225.175C82.7085 222.387 81.8203 216.98 84.6079 213.097L94.9214 198.731C97.709 194.848 103.117 193.96 107 196.748C110.882 199.535 111.771 204.943 108.983 208.826Z" fill="#FCD0A3"/>
<path d="M123.044 218.922L112.731 233.287C109.943 237.17 104.536 238.058 100.653 235.271C96.77 232.483 95.8818 227.075 98.6694 223.193L108.983 208.827C111.771 204.944 117.178 204.056 121.061 206.844C124.944 209.631 125.832 215.038 123.044 218.922Z" fill="#FCD0A3"/>
<path d="M132.523 235.399L129.094 240.177C126.306 244.059 120.898 244.948 117.016 242.16C113.133 239.372 112.245 233.965 115.032 230.082L118.462 225.304C121.25 221.422 126.657 220.533 130.54 223.321C134.423 226.109 135.311 231.516 132.523 235.399Z" fill="#FFB983"/>
<path d="M91.667 132.272L84.0864 127.781C82.001 126.546 79.3091 127.235 78.0737 129.321L46.9082 181.927C45.6728 184.012 46.3618 186.704 48.4473 187.939L56.0278 192.43C61.1123 195.442 67.6763 193.762 70.6885 188.677L95.4194 146.933C98.4316 141.848 96.7515 135.284 91.667 132.272Z" fill="#7C8B96"/>
<path d="M194.516 127.781L186.935 132.272C181.851 135.284 180.17 141.848 183.183 146.933L207.914 188.677C210.926 193.762 217.49 195.442 222.574 192.43L230.155 187.939C232.24 186.704 232.929 184.011 231.694 181.927L200.528 129.321C199.293 127.235 196.601 126.546 194.516 127.781Z" fill="#7C8B96"/>
<path d="M163.552 67.2871H43.8306C41.7993 67.2871 40.1528 68.9336 40.1528 70.9648C40.1528 72.9961 41.7993 74.6426 43.8306 74.6426H163.552C165.583 74.6426 167.23 72.9961 167.23 70.9648C167.23 68.9336 165.583 67.2871 163.552 67.2871Z" fill="black"/>
<path d="M43.8306 49.1318H103.691C105.722 49.1318 107.369 47.4853 107.369 45.4541C107.369 43.4229 105.722 41.7764 103.691 41.7764H43.8306C41.7993 41.7764 40.1528 43.4229 40.1528 45.4541C40.1528 47.4858 41.7993 49.1318 43.8306 49.1318Z" fill="black"/>
<path d="M163.552 89.8906H43.8306C41.7993 89.8906 40.1528 91.5371 40.1528 93.5684C40.1528 95.5996 41.7993 97.2461 43.8306 97.2461H163.552C165.583 97.2461 167.23 95.5996 167.23 93.5684C167.229 91.5371 165.583 89.8906 163.552 89.8906Z" fill="black"/>
<path d="M71.1025 224.447H32.7886C26.5 224.447 21.3833 219.331 21.3833 213.042V18.7603C21.3833 12.4717 26.5 7.35498 32.7886 7.35498H143.167C143.524 7.35498 143.875 7.3877 144.222 7.43457V30.3711C144.222 40.7158 152.638 49.1313 162.982 49.1313H185.918C185.966 49.479 185.998 49.8301 185.998 50.1865V112.814C185.998 114.845 187.645 116.492 189.676 116.492C191.707 116.492 193.354 114.845 193.354 112.814V50.187C193.354 46.1528 191.782 42.3599 188.93 39.5068L153.847 4.42383C150.994 1.57129 147.202 0 143.167 0H32.7886C22.4438 0 14.0283 8.41602 14.0283 18.7603V213.042C14.0283 223.387 22.4443 231.802 32.7886 231.802H71.1025C73.1338 231.802 74.7803 230.156 74.7803 228.125C74.7803 226.093 73.1338 224.447 71.1025 224.447ZM180.797 41.7764H162.983C156.694 41.7764 151.578 36.6597 151.578 30.3711V12.5566L180.797 41.7764Z" fill="black"/>
<path d="M234.843 180.043L203.682 127.446C201.411 123.611 196.468 122.343 192.631 124.616L185.052 129.107C179.168 132.592 176.682 139.646 178.702 145.896C176.148 146.821 173.348 146.807 170.77 145.81C164.786 143.927 160.236 140.14 152.722 142.04C139.963 145.289 140.351 145.126 139.196 145.521C131.726 141.268 127.235 140.002 119.304 143.07L112.235 145.803C108.962 147.068 105.355 146.768 102.331 144.976L100.402 143.839C101.343 138.198 98.8418 132.246 93.5449 129.108C93.5449 129.108 93.5449 129.108 93.5444 129.107L85.9653 124.617C82.1391 122.351 77.1821 123.62 74.9155 127.446L43.7534 180.044C41.4824 183.878 42.7461 188.822 46.582 191.094L54.1611 195.584C56.4546 196.943 58.9751 197.589 61.4653 197.589C64.2422 197.589 66.98 196.784 69.3208 195.269L70.9004 196.201L67.5654 200.846C63.5913 206.382 64.854 214.08 70.3911 218.055C72.9516 219.893 76.1684 220.732 79.4951 220.209C80.0229 223.295 81.7134 226.183 84.4507 228.148C87.0215 229.994 90.2236 230.834 93.5561 230.31C94.0854 233.393 95.7749 236.278 98.5107 238.242C102.187 240.881 106.759 241.187 110.568 239.56C111.401 241.725 112.85 243.68 114.871 245.131C120.148 248.918 127.418 247.931 131.519 243.023L140.381 248.273C146.242 251.747 153.804 249.816 157.279 243.949C158.167 242.449 158.719 240.814 158.92 239.134L158.94 239.146C164.792 242.612 172.372 240.671 175.838 234.821C176.842 233.126 177.393 231.288 177.526 229.445C182.685 230.742 188.306 228.576 191.153 223.771C192.087 222.195 192.628 220.492 192.807 218.779C198.335 220.948 204.796 218.852 207.918 213.582C209.598 210.748 210.073 207.429 209.256 204.237C208.789 202.411 207.929 200.753 206.749 199.354L211.634 196.5C215.767 198.196 220.482 197.924 224.435 195.583L232.013 191.093C235.849 188.823 237.116 183.88 234.843 180.043ZM57.9101 189.256L50.331 184.766C49.9941 184.566 49.8823 184.129 50.0815 183.792L81.2436 131.193C81.4443 130.855 81.8823 130.745 82.2173 130.944L89.7959 135.434C93.1636 137.43 94.2173 141.749 92.2583 145.055L67.5312 186.793C65.5576 190.125 61.2422 191.229 57.9101 189.256ZM74.6802 212.08C72.4468 210.476 71.936 207.37 73.5405 205.135L78.4424 198.307C80.0039 196.132 83.1157 195.537 85.3867 197.167C87.6157 198.767 88.1269 201.882 86.5273 204.111L81.625 210.939C80.0249 213.169 76.9082 213.679 74.6802 212.08ZM88.7402 222.174C86.5112 220.573 86 217.458 87.6001 215.229L92.5019 208.401C92.5019 208.401 92.5019 208.401 92.5019 208.401C92.5019 208.401 92.5019 208.4 92.5024 208.4L97.9121 200.865C98.6875 199.786 99.8364 199.072 101.148 198.857C101.42 198.812 101.693 198.79 101.964 198.79C102.997 198.79 104.001 199.111 104.856 199.725C105.936 200.5 106.649 201.649 106.864 202.96C107.08 204.272 106.771 205.589 105.996 206.669L95.6841 221.033C94.0815 223.267 90.9746 223.778 88.7402 222.174ZM102.8 232.267C100.572 230.667 100.061 227.554 101.658 225.326C101.658 225.325 101.659 225.324 101.66 225.323L111.972 210.959C113.571 208.73 116.688 208.219 118.916 209.818C121.145 211.418 121.656 214.534 120.056 216.763L115.475 223.145C115.475 223.145 115.475 223.145 115.474 223.146L109.744 231.127C108.144 233.356 105.03 233.868 102.8 232.267ZM119.161 239.156C116.933 237.556 116.421 234.444 118.017 232.215L121.449 227.435C123.049 225.206 126.166 224.696 128.394 226.295C130.622 227.895 131.134 231.01 129.534 233.239L126.104 238.015C124.505 240.245 121.389 240.756 119.161 239.156ZM201.592 209.834C200.192 212.195 197.134 212.979 194.771 211.58C190.771 209.21 164.969 193.923 162.218 192.293C160.47 191.258 158.214 191.835 157.179 193.583C156.144 195.33 156.721 197.586 158.468 198.621L183.079 213.202L183.08 213.202C185.442 214.602 186.23 217.651 184.826 220.023C183.426 222.386 180.366 223.167 178.004 221.77C168.902 216.377 161.511 211.998 153.38 207.181C151.632 206.146 149.377 206.723 148.342 208.47C147.307 210.218 147.883 212.474 149.631 213.509L167.765 224.252L167.769 224.254C170.133 225.658 170.913 228.706 169.511 231.073C168.111 233.436 165.052 234.219 162.689 232.819L152.957 227.054C152.957 227.054 152.955 227.053 152.954 227.052C152.953 227.052 152.952 227.051 152.951 227.051L145.849 222.843C144.101 221.807 141.846 222.384 140.811 224.132C139.775 225.879 140.352 228.135 142.1 229.17L149.203 233.379C149.204 233.379 149.205 233.38 149.206 233.381C151.569 234.78 152.357 237.829 150.952 240.201C149.552 242.564 146.493 243.347 144.13 241.947L135.844 237.039C139.396 231.557 138.045 224.17 132.683 220.322C131.108 219.192 129.355 218.488 127.562 218.186C129.464 213.1 127.824 207.161 123.205 203.846C120.471 201.882 117.197 201.204 114.107 201.688C113.557 198.473 111.799 195.656 109.146 193.752C104.157 190.172 97.3764 190.86 93.1885 195.097C92.3374 193.602 91.1626 192.261 89.6763 191.194C85.5303 188.219 80.1474 188.191 76.0429 190.697L74.3579 189.703L97.4878 150.66L98.5888 151.31C103.452 154.19 109.387 154.791 114.887 152.664L121.956 149.931C126.001 148.368 128.232 148.266 132.234 150.154C129.616 153.095 128.062 156.957 128.062 161.119V177.425C128.062 181.756 131.582 185.282 135.91 185.285H135.921C140.262 185.285 144.344 183.595 147.415 180.526C149.205 178.737 150.526 176.604 151.318 174.276C156.066 177.088 195.298 200.32 199.847 203.015C200.991 203.693 201.802 204.775 202.132 206.063C202.461 207.35 202.27 208.689 201.592 209.834ZM228.266 184.766L220.686 189.256C217.354 191.229 213.039 190.124 211.066 186.794L199.476 167.231C198.44 165.483 196.184 164.907 194.437 165.941C192.69 166.976 192.113 169.232 193.147 170.979L204.737 190.543C204.956 190.911 205.192 191.261 205.437 191.603L202.215 193.485C201.564 193.871 200.937 194.295 200.338 194.757L150.376 165.169C147.928 163.721 144.825 165.487 144.825 168.334C144.786 168.553 145.205 172.333 142.215 175.322C140.533 177.002 138.298 177.928 135.92 177.928C135.918 177.928 135.916 177.928 135.915 177.928C135.64 177.928 135.416 177.702 135.416 177.423V161.117C135.416 156.857 138.347 153.264 142.31 152.26L154.525 149.169C158.957 148.049 161.462 150.416 168.099 152.662C172.706 154.444 177.715 154.334 182.161 152.435L184.381 156.182C185.416 157.931 187.672 158.507 189.419 157.472C191.167 156.437 191.744 154.181 190.709 152.434L186.337 145.054C184.359 141.715 185.461 137.413 188.8 135.434L196.379 130.944C196.71 130.747 197.148 130.848 197.353 131.193L228.514 183.792C228.715 184.131 228.604 184.565 228.266 184.766Z" fill="black"/>
</svg>
