<svg width="300" height="300" viewBox="0 0 300 300" fill="none" xmlns="http://www.w3.org/2000/svg">
<path d="M112.5 217.969H18.75C13.5721 217.969 9.375 213.772 9.375 208.594V30.4688C9.375 25.2908 13.5721 21.0938 18.75 21.0938H112.5C117.678 21.0938 121.875 25.2908 121.875 30.4688V208.594C121.875 213.772 117.678 217.969 112.5 217.969Z" fill="#D7E6F0"/>
<path d="M98.4375 203.906H32.8125C27.6346 203.906 23.4375 199.709 23.4375 194.531V53.9062C23.4375 48.7283 27.6346 44.5312 32.8125 44.5312H98.4375C103.615 44.5312 107.812 48.7283 107.812 53.9062V194.531C107.812 199.709 103.615 203.906 98.4375 203.906Z" fill="#289BC3"/>
<path d="M82.0312 35.1562H49.2188C47.9244 35.1562 46.875 34.1068 46.875 32.8125C46.875 31.5182 47.9244 30.4688 49.2188 30.4688H82.0312C83.3256 30.4688 84.375 31.5182 84.375 32.8125C84.375 34.1068 83.3256 35.1562 82.0312 35.1562Z" fill="#555A6E"/>
<path d="M89.0625 133.594H42.1875C39.5988 133.594 37.5 131.495 37.5 128.906V63.2812C37.5 60.6926 39.5988 58.5938 42.1875 58.5938H89.0625C91.6512 58.5938 93.75 60.6926 93.75 63.2812V128.906C93.75 131.495 91.6512 133.594 89.0625 133.594Z" fill="#00D2D2"/>
<path d="M56.25 161.719H42.1875C39.5988 161.719 37.5 159.62 37.5 157.031V147.656C37.5 145.068 39.5988 142.969 42.1875 142.969H56.25C58.8387 142.969 60.9375 145.068 60.9375 147.656V157.031C60.9375 159.62 58.8387 161.719 56.25 161.719Z" fill="#00D2D2"/>
<path d="M89.0625 189.844H42.1875C39.5988 189.844 37.5 187.745 37.5 185.156V175.781C37.5 173.193 39.5988 171.094 42.1875 171.094H89.0625C91.6512 171.094 93.75 173.193 93.75 175.781V185.156C93.75 187.745 91.6512 189.844 89.0625 189.844Z" fill="#FF8CAF"/>
<path d="M89.0625 161.719H75C72.4113 161.719 70.3125 159.62 70.3125 157.031V147.656C70.3125 145.068 72.4113 142.969 75 142.969H89.0625C91.6512 142.969 93.75 145.068 93.75 147.656V157.031C93.75 159.62 91.6512 161.719 89.0625 161.719Z" fill="#00D2D2"/>
<path d="M262.5 278.906H168.75C163.572 278.906 159.375 274.709 159.375 269.531V91.4062C159.375 86.2283 163.572 82.0312 168.75 82.0312H262.5C267.678 82.0312 271.875 86.2283 271.875 91.4062V269.531C271.875 274.709 267.678 278.906 262.5 278.906Z" fill="#D7E6F0"/>
<path d="M248.438 264.844H182.812C177.635 264.844 173.438 260.647 173.438 255.469V114.844C173.438 109.666 177.635 105.469 182.812 105.469H248.438C253.615 105.469 257.812 109.666 257.812 114.844V255.469C257.812 260.647 253.615 264.844 248.438 264.844Z" fill="#289BC3"/>
<path d="M232.031 96.0938H199.219C197.924 96.0938 196.875 95.0443 196.875 93.75C196.875 92.4557 197.924 91.4062 199.219 91.4062H232.031C233.326 91.4062 234.375 92.4557 234.375 93.75C234.375 95.0443 233.326 96.0938 232.031 96.0938Z" fill="#555A6E"/>
<path d="M215.625 138.281H192.188C189.599 138.281 187.5 136.182 187.5 133.594V124.219C187.5 121.63 189.599 119.531 192.188 119.531H215.625C218.214 119.531 220.312 121.63 220.312 124.219V133.594C220.312 136.182 218.214 138.281 215.625 138.281Z" fill="#00D2D2"/>
<path d="M239.062 166.406H192.188C189.599 166.406 187.5 164.307 187.5 161.719V152.344C187.5 149.755 189.599 147.656 192.188 147.656H239.062C241.651 147.656 243.75 149.755 243.75 152.344V161.719C243.75 164.307 241.651 166.406 239.062 166.406Z" fill="#00D2D2"/>
<path d="M239.062 194.531H192.188C189.599 194.531 187.5 192.432 187.5 189.844V180.469C187.5 177.88 189.599 175.781 192.188 175.781H239.062C241.651 175.781 243.75 177.88 243.75 180.469V189.844C243.75 192.432 241.651 194.531 239.062 194.531Z" fill="#00D2D2"/>
<path d="M239.062 222.656H192.188C189.599 222.656 187.5 220.557 187.5 217.969V208.594C187.5 206.005 189.599 203.906 192.188 203.906H239.062C241.651 203.906 243.75 206.005 243.75 208.594V217.969C243.75 220.557 241.651 222.656 239.062 222.656Z" fill="#00D2D2"/>
<path d="M239.062 250.781H192.188C189.599 250.781 187.5 248.682 187.5 246.094V236.719C187.5 234.13 189.599 232.031 192.188 232.031H239.062C241.651 232.031 243.75 234.13 243.75 236.719V246.094C243.75 248.682 241.651 250.781 239.062 250.781Z" fill="#FF8CAF"/>
<path d="M180.346 180.112L169.695 171.829C169.082 171.352 168.329 171.093 167.552 171.093C165.625 171.093 164.062 172.656 164.062 174.583V180.469C156.309 180.469 150 174.161 150 166.406V114.844C150 101.92 139.486 91.4062 126.562 91.4062H83.7814C81.6949 83.3285 74.3455 77.3438 65.625 77.3438C55.2861 77.3438 46.875 85.7549 46.875 96.0938C46.875 106.433 55.2861 114.844 65.625 114.844C74.3461 114.844 81.6949 108.859 83.7814 100.781H126.562C134.316 100.781 140.625 107.089 140.625 114.844V166.406C140.625 179.33 151.139 189.844 164.062 189.844V195.729C164.062 197.657 165.625 199.219 167.552 199.219C168.329 199.219 169.082 198.96 169.695 198.483L180.346 190.199C181.902 188.989 182.812 187.127 182.812 185.156C182.812 183.184 181.902 181.323 180.346 180.112ZM75 96.0938C75 101.263 70.7941 105.469 65.625 105.469C60.4559 105.469 56.25 101.263 56.25 96.0938C56.25 90.924 60.4559 86.7188 65.625 86.7188C70.7941 86.7188 75 90.924 75 96.0938Z" fill="#463C4B"/>
<path d="M65.625 105.469C70.8027 105.469 75 101.271 75 96.0938C75 90.9161 70.8027 86.7188 65.625 86.7188C60.4473 86.7188 56.25 90.9161 56.25 96.0938C56.25 101.271 60.4473 105.469 65.625 105.469Z" fill="#FF8CAF"/>
</svg>
