<svg width="44" height="53" viewBox="0 0 44 53" fill="none" xmlns="http://www.w3.org/2000/svg">
<path d="M10 24H34C34.5304 24 35.0391 23.7892 35.4142 23.4142C35.7893 23.0391 36 22.5304 36 22V9.99995C36 9.46952 35.7893 8.96081 35.4142 8.58574C35.0391 8.21067 34.5304 7.99995 34 7.99995H10C9.46957 7.99995 8.96086 8.21067 8.58579 8.58574C8.21071 8.96081 8 9.46952 8 9.99995V22C8 22.5304 8.21071 23.0391 8.58579 23.4142C8.96086 23.7892 9.46957 24 10 24ZM12 12H32V20H12V12ZM40 0.00195312H4C2.9395 0.00314418 1.92278 0.424954 1.17289 1.17484C0.423001 1.92473 0.00119105 2.94145 0 4.00195V48.0019C0.00119105 49.0624 0.423001 50.0792 1.17289 50.8291C1.92278 51.5789 2.9395 52.0008 4 52.0019H40C41.0605 52.0008 42.0772 51.5789 42.8271 50.8291C43.577 50.0792 43.9988 49.0624 44 48.0019V4.00195C43.9988 2.94145 43.577 1.92473 42.8271 1.17484C42.0772 0.424954 41.0605 0.00314418 40 0.00195312ZM40 48.0019L4 48.0044V4.00195H40V48.0019ZM25 31C25 31.5933 24.8241 32.1733 24.4944 32.6667C24.1648 33.16 23.6962 33.5445 23.148 33.7716C22.5999 33.9986 21.9967 34.0581 21.4147 33.9423C20.8328 33.8265 20.2982 33.5408 19.8787 33.1213C19.4591 32.7017 19.1734 32.1672 19.0576 31.5852C18.9419 31.0033 19.0013 30.4001 19.2284 29.8519C19.4554 29.3037 19.8399 28.8352 20.3333 28.5055C20.8266 28.1759 21.4067 28 22 28C22.7954 28.0009 23.5579 28.3172 24.1203 28.8797C24.6827 29.4421 24.9991 30.2046 25 31ZM25 41C25 41.5933 24.8241 42.1733 24.4944 42.6667C24.1648 43.16 23.6962 43.5445 23.148 43.7716C22.5999 43.9986 21.9967 44.0581 21.4147 43.9423C20.8328 43.8265 20.2982 43.5408 19.8787 43.1213C19.4591 42.7017 19.1734 42.1672 19.0576 41.5852C18.9419 41.0033 19.0013 40.4001 19.2284 39.8519C19.4554 39.3037 19.8399 38.8352 20.3333 38.5055C20.8266 38.1759 21.4067 38 22 38C22.7954 38.0009 23.5579 38.3172 24.1203 38.8797C24.6827 39.4421 24.9991 40.2046 25 41ZM15 31C15 31.5933 14.8241 32.1733 14.4944 32.6667C14.1648 33.16 13.6962 33.5445 13.1481 33.7716C12.5999 33.9986 11.9967 34.0581 11.4147 33.9423C10.8328 33.8265 10.2982 33.5408 9.87868 33.1213C9.45912 32.7017 9.1734 32.1672 9.05764 31.5852C8.94189 31.0033 9.0013 30.4001 9.22836 29.8519C9.45542 29.3037 9.83994 28.8352 10.3333 28.5055C10.8266 28.1759 11.4067 28 12 28C12.7954 28.0009 13.5579 28.3172 14.1203 28.8797C14.6827 29.4421 14.9991 30.2046 15 31ZM15 41C15 41.5933 14.8241 42.1733 14.4944 42.6667C14.1648 43.16 13.6962 43.5445 13.1481 43.7716C12.5999 43.9986 11.9967 44.0581 11.4147 43.9423C10.8328 43.8265 10.2982 43.5408 9.87868 43.1213C9.45912 42.7017 9.1734 42.1672 9.05764 41.5852C8.94189 41.0033 9.0013 40.4001 9.22836 39.8519C9.45542 39.3037 9.83994 38.8352 10.3333 38.5055C10.8266 38.1759 11.4067 38 12 38C12.7954 38.0009 13.5579 38.3172 14.1203 38.8797C14.6827 39.4421 14.9991 40.2046 15 41ZM35 31C35 31.5933 34.8241 32.1733 34.4944 32.6667C34.1648 33.16 33.6962 33.5445 33.148 33.7716C32.5999 33.9986 31.9967 34.0581 31.4147 33.9423C30.8328 33.8265 30.2982 33.5408 29.8787 33.1213C29.4591 32.7017 29.1734 32.1672 29.0576 31.5852C28.9419 31.0033 29.0013 30.4001 29.2284 29.8519C29.4554 29.3037 29.8399 28.8352 30.3333 28.5055C30.8266 28.1759 31.4067 28 32 28C32.7954 28.0009 33.5579 28.3172 34.1203 28.8797C34.6827 29.4421 34.9991 30.2046 35 31ZM35 41C35 41.5933 34.8241 42.1733 34.4944 42.6667C34.1648 43.16 33.6962 43.5445 33.148 43.7716C32.5999 43.9986 31.9967 44.0581 31.4147 43.9423C30.8328 43.8265 30.2982 43.5408 29.8787 43.1213C29.4591 42.7017 29.1734 42.1672 29.0576 41.5852C28.9419 41.0033 29.0013 40.4001 29.2284 39.8519C29.4554 39.3037 29.8399 38.8352 30.3333 38.5055C30.8266 38.1759 31.4067 38 32 38C32.7954 38.0009 33.5579 38.3172 34.1203 38.8797C34.6827 39.4421 34.9991 40.2046 35 41Z" fill="white"/>
</svg>
