<svg width="70" height="74" viewBox="0 0 70 74" fill="none" xmlns="http://www.w3.org/2000/svg">
<g filter="url(#filter0_d)">
<rect x="19" y="19" width="36" height="36" rx="18" fill="#172634"/>
<path d="M36.0357 36.9999C36.0357 37.2556 36.1373 37.5009 36.3182 37.6817C36.499 37.8626 36.7443 37.9642 37 37.9642C37.2557 37.9642 37.501 37.8626 37.6818 37.6817C37.8627 37.5009 37.9643 37.2556 37.9643 36.9999C37.9643 36.7441 37.8627 36.4989 37.6818 36.318C37.501 36.1372 37.2557 36.0356 37 36.0356C36.7443 36.0356 36.499 36.1372 36.3182 36.318C36.1373 36.4989 36.0357 36.7441 36.0357 36.9999ZM40.0535 36.9999C40.0535 37.2556 40.1551 37.5009 40.336 37.6817C40.5168 37.8626 40.7621 37.9642 41.0178 37.9642C41.2735 37.9642 41.5188 37.8626 41.6997 37.6817C41.8805 37.5009 41.9821 37.2556 41.9821 36.9999C41.9821 36.7441 41.8805 36.4989 41.6997 36.318C41.5188 36.1372 41.2735 36.0356 41.0178 36.0356C40.7621 36.0356 40.5168 36.1372 40.336 36.318C40.1551 36.4989 40.0535 36.7441 40.0535 36.9999ZM32.0179 36.9999C32.0179 37.2556 32.1195 37.5009 32.3003 37.6817C32.4812 37.8626 32.7265 37.9642 32.9822 37.9642C33.2379 37.9642 33.4832 37.8626 33.664 37.6817C33.8449 37.5009 33.9465 37.2556 33.9465 36.9999C33.9465 36.7441 33.8449 36.4989 33.664 36.318C33.4832 36.1372 33.2379 36.0356 32.9822 36.0356C32.7265 36.0356 32.4812 36.1372 32.3003 36.318C32.1195 36.4989 32.0179 36.7441 32.0179 36.9999ZM45.3008 33.5124C44.8468 32.4337 44.1959 31.4654 43.3662 30.6337C42.5423 29.8068 41.5643 29.1495 40.4875 28.6991C39.3826 28.235 38.2094 28 37 28H36.9598C35.7424 28.006 34.5632 28.2471 33.4543 28.7212C32.3867 29.1763 31.4178 29.8347 30.6016 30.6598C29.78 31.4895 29.1351 32.4537 28.6892 33.5285C28.2271 34.6414 27.9941 35.8247 28.0001 37.0421C28.0069 38.4372 28.337 39.8118 28.9644 41.0579V44.1114C28.9644 44.3565 29.0617 44.5915 29.235 44.7648C29.4084 44.9381 29.6434 45.0355 29.8885 45.0355H32.944C34.1901 45.6629 35.5647 45.993 36.9598 45.9998H37.002C38.2053 45.9998 39.3725 45.7667 40.4714 45.3107C41.5428 44.8657 42.5172 44.2161 43.3401 43.3982C44.1698 42.5766 44.8227 41.6164 45.2787 40.5456C45.7528 39.4367 45.9939 38.2575 45.9999 37.0401C46.0059 35.8166 45.7689 34.6294 45.3008 33.5124ZM42.2653 42.3114C40.8571 43.7056 38.9888 44.473 37 44.473H36.9658C35.7545 44.467 34.5511 44.1656 33.4884 43.5991L33.3197 43.5087H30.4912V40.6802L30.4008 40.5115C29.8342 39.4487 29.5329 38.2454 29.5269 37.034C29.5188 35.0312 30.2842 33.1508 31.6885 31.7346C33.0907 30.3183 34.965 29.5348 36.9679 29.5268H37.002C38.0065 29.5268 38.9808 29.7216 39.8988 30.1073C40.7948 30.483 41.5984 31.0234 42.2894 31.7145C42.9785 32.4035 43.5209 33.2091 43.8966 34.1051C44.2863 35.0332 44.4812 36.0175 44.4771 37.034C44.4651 39.0349 43.6796 40.9092 42.2653 42.3114Z" fill="#E1EDF8"/>
</g>
<defs>
<filter id="filter0_d" x="0" y="0" width="74" height="74" filterUnits="userSpaceOnUse" color-interpolation-filters="sRGB">
<feFlood flood-opacity="0" result="BackgroundImageFix"/>
<feColorMatrix in="SourceAlpha" type="matrix" values="0 0 0 0 0 0 0 0 0 0 0 0 0 0 0 0 0 0 127 0"/>
<feMorphology radius="4" operator="dilate" in="SourceAlpha" result="effect1_dropShadow"/>
<feOffset/>
<feGaussianBlur stdDeviation="7.5"/>
<feColorMatrix type="matrix" values="0 0 0 0 0.882353 0 0 0 0 0.929412 0 0 0 0 0.972549 0 0 0 1 0"/>
<feBlend mode="normal" in2="BackgroundImageFix" result="effect1_dropShadow"/>
<feBlend mode="normal" in="SourceGraphic" in2="effect1_dropShadow" result="shape"/>
</filter>
</defs>
</svg>
