<svg width="36" height="36" viewBox="0 0 450 450" fill="none" xmlns="http://www.w3.org/2000/svg">
<path d="M154.684 423.984V326.953L82.2617 380.391C102.652 399.375 127.262 414.141 154.684 423.984" fill="#2A5F9E"/>
<path d="M295.312 423.984C322.734 414.141 347.344 399.375 367.734 380.391L295.312 326.25V423.984Z" fill="#2A5F9E"/>
<path d="M26.0117 295.312C28.1211 302.344 30.9336 308.672 34.4492 315.703L61.8711 295.312H26.0117Z" fill="#2A5F9E"/>
<path d="M388.121 295.312L415.543 315.703C418.355 309.375 421.168 302.344 423.98 295.312H388.121Z" fill="#2A5F9E"/>
<path d="M165.232 267.188H18.2793C20.3887 277.031 23.2012 286.172 26.0137 295.312H61.873L34.4512 315.703C40.0762 327.656 46.4043 338.203 54.1387 348.75L126.561 295.312H154.686V309.375L72.4199 369.844L82.2637 379.687L154.686 326.953V423.984C163.826 427.5 172.967 429.609 182.811 431.719V267.188H165.232Z" fill="white"/>
<path d="M431.719 267.188H267.188V431.719C277.031 429.609 286.172 426.797 295.312 423.984V326.953L367.734 379.687C377.578 370.547 386.016 360.703 394.453 350.156L319.219 295.312H367.031L409.922 326.953C412.031 323.437 414.141 319.219 415.547 315.703L388.125 295.312H423.984C426.797 286.172 429.609 277.031 431.719 267.188" fill="white"/>
<path d="M54.1367 348.75C59.7617 356.484 65.3867 363.516 71.7148 370.547L154.684 310.078V296.016H126.559L54.1367 348.75Z" fill="#ED4C5C"/>
<path d="M319.922 295.312L395.156 350.156C397.969 346.641 400.078 343.125 402.891 339.609C403.594 338.906 403.594 338.203 404.297 338.203C406.406 334.687 409.219 330.469 411.328 326.953L367.031 295.312H319.922Z" fill="#ED4C5C"/>
<path d="M295.312 26.0157V123.047L367.734 69.6094C347.344 50.6251 322.734 35.8594 295.312 26.0157Z" fill="#2A5F9E"/>
<path d="M154.684 26.0157C127.262 35.8594 102.652 50.6251 82.2617 69.6094L154.684 123.75V26.0157Z" fill="#2A5F9E"/>
<path d="M423.98 154.688C421.871 147.656 419.059 141.328 415.543 134.297L388.121 154.688H423.98" fill="#2A5F9E"/>
<path d="M61.8711 154.688L34.4492 134.297C31.6367 141.328 28.8242 147.656 26.0117 154.688H61.8711Z" fill="#2A5F9E"/>
<path d="M284.766 182.813H431.016C428.906 172.969 426.094 163.828 423.281 154.688H387.422L414.844 134.297C409.219 122.344 402.891 111.797 395.156 101.25L323.438 154.688H295.312V140.625L377.578 80.1563L367.734 70.3125L295.312 123.047V26.0157C286.172 22.5 277.031 20.3907 267.188 18.2813V182.813H284.766Z" fill="white"/>
<path d="M18.2793 182.813H182.811V18.2813C172.967 20.3907 163.826 23.2032 154.686 26.0157V123.047L82.2637 70.3125C72.4199 79.4532 63.9824 89.2969 55.5449 99.8438L130.779 154.688H82.9668L40.0762 123.047C37.9668 126.563 35.8574 130.781 34.4512 134.297L61.873 154.688H26.0137C23.2012 163.828 20.3887 172.969 18.2793 182.813Z" fill="white"/>
<path d="M395.859 101.25C390.234 93.5156 384.609 86.4843 378.281 79.4531L295.312 139.922V153.984H323.438L395.859 101.25" fill="#ED4C5C"/>
<path d="M130.076 154.688L55.5449 99.8438C52.7324 103.359 50.6231 106.875 47.8106 110.391C47.1074 111.094 47.1074 111.797 46.4043 111.797C44.2949 115.313 41.4824 119.531 39.373 123.047L82.2637 154.688H130.076Z" fill="#ED4C5C"/>
<path d="M431.719 182.812H267.188V18.2812C253.828 15.4687 239.766 14.0625 225 14.0625C210.234 14.0625 196.172 15.4687 182.812 18.2812V182.812H18.2812C15.4687 196.172 14.0625 210.234 14.0625 225C14.0625 239.766 15.4687 253.828 18.2812 267.188H182.812V431.719C196.172 434.531 210.234 435.938 225 435.938C239.766 435.938 253.828 434.531 267.188 431.719V267.188H431.719C434.531 253.828 435.938 239.766 435.938 225C435.938 210.234 434.531 196.172 431.719 182.812Z" fill="#ED4C5C"/>
</svg>
