<svg width="71" height="71" viewBox="0 0 71 71" fill="none" xmlns="http://www.w3.org/2000/svg">
<rect width="71" height="71" rx="35.5" fill="#172634"/>
<path d="M34.75 61.0625V53.5625C24.3125 53.0208 16 44.3542 16 33.7917C16 22.875 24.875 14 35.7917 14C46.7083 14 55.5833 22.875 55.5833 33.7917C55.5833 44.1042 48.4167 54.4792 37.7292 59.625L34.75 61.0625ZM35.7917 18.1667C27.1667 18.1667 20.1667 25.1667 20.1667 33.7917C20.1667 42.4167 27.1667 49.4167 35.7917 49.4167H38.9167V54.2083C46.5 49.4167 51.4167 41.5417 51.4167 33.7917C51.4167 25.1667 44.4167 18.1667 35.7917 18.1667ZM33.7083 42.125H37.875V46.2917H33.7083V42.125ZM37.875 39H33.7083C33.7083 32.2292 39.9583 32.75 39.9583 28.5833C39.9583 26.2917 38.0833 24.4167 35.7917 24.4167C33.5 24.4167 31.625 26.2917 31.625 28.5833H27.4583C27.4583 23.9792 31.1875 20.25 35.7917 20.25C40.3958 20.25 44.125 23.9792 44.125 28.5833C44.125 33.7917 37.875 34.3125 37.875 39Z" fill="white"/>
</svg>
