<svg width="141" height="17" viewBox="0 0 141 17" fill="none" xmlns="http://www.w3.org/2000/svg">
<path d="M5.13411 3.81818H7.26195V10.9176C7.26195 11.5739 7.11446 12.1439 6.81948 12.6278C6.52781 13.1117 6.1218 13.4846 5.60144 13.7464C5.08108 14.0083 4.4762 14.1392 3.78681 14.1392C3.17364 14.1392 2.61683 14.0315 2.11635 13.8161C1.61919 13.5973 1.22478 13.2659 0.933114 12.8217C0.641447 12.3743 0.497271 11.8125 0.500586 11.1364H2.64334C2.64997 11.4048 2.70466 11.6352 2.8074 11.8274C2.91346 12.0163 3.05764 12.1622 3.23993 12.2649C3.42554 12.3643 3.64429 12.4141 3.89618 12.4141C4.16133 12.4141 4.38506 12.3577 4.56735 12.245C4.75295 12.129 4.89382 11.96 4.98993 11.7379C5.08605 11.5159 5.13411 11.2424 5.13411 10.9176V3.81818ZM12.1967 14H9.88993L13.4048 3.81818H16.179L19.6889 14H17.3821L14.8317 6.14489H14.7521L12.1967 14ZM12.0526 9.99787H17.5014V11.6783H12.0526V9.99787ZM22.3144 14V3.81818H26.3315C27.1004 3.81818 27.7567 3.95573 28.3002 4.23082C28.8471 4.5026 29.2631 4.88873 29.5481 5.3892C29.8365 5.88636 29.9806 6.47135 29.9806 7.14418C29.9806 7.82031 29.8348 8.40199 29.5431 8.8892C29.2515 9.37311 28.8289 9.74432 28.2754 10.0028C27.7252 10.2614 27.059 10.3906 26.2768 10.3906H23.5872V8.66051H25.9288C26.3398 8.66051 26.6811 8.60417 26.9529 8.49148C27.2247 8.37879 27.4269 8.20975 27.5595 7.98438C27.6954 7.759 27.7633 7.47893 27.7633 7.14418C27.7633 6.80611 27.6954 6.52107 27.5595 6.28906C27.4269 6.05705 27.2231 5.88139 26.948 5.76207C26.6762 5.63944 26.3331 5.57812 25.9188 5.57812H24.4671V14H22.3144ZM27.813 9.36648L30.3436 14H27.9671L25.4913 9.36648H27.813ZM32.9019 3.81818H35.5568L38.3607 10.6591H38.4801L41.284 3.81818H43.9389V14H41.8508V7.37287H41.7663L39.1313 13.9503H37.7095L35.0745 7.34801H34.99V14H32.9019V3.81818Z" fill="#337DC1"/>
<path d="M45.2325 14L42.3192 3.81818H44.6707L46.3561 10.8928H46.4406L48.3 3.81818H50.3135L52.1679 10.9077H52.2574L53.9427 3.81818H56.2943L53.3809 14H51.2829L49.344 7.34304H49.2645L47.3305 14H45.2325ZM60.0665 14.1491C59.281 14.1491 58.6048 13.9901 58.0381 13.6719C57.4746 13.3504 57.0405 12.8963 56.7355 12.3097C56.4306 11.7197 56.2781 11.022 56.2781 10.2166C56.2781 9.43111 56.4306 8.74171 56.7355 8.14844C57.0405 7.55516 57.4697 7.0928 58.0232 6.76136C58.58 6.42992 59.2329 6.2642 59.982 6.2642C60.4858 6.2642 60.9548 6.34541 61.3889 6.50781C61.8264 6.6669 62.2076 6.9072 62.5324 7.22869C62.8605 7.55019 63.1157 7.95455 63.298 8.44176C63.4803 8.92566 63.5715 9.49242 63.5715 10.142V10.7237H57.1233V9.41122H61.5779C61.5779 9.1063 61.5116 8.83617 61.379 8.60085C61.2464 8.36553 61.0625 8.18158 60.8271 8.04901C60.5951 7.91312 60.325 7.84517 60.0168 7.84517C59.6953 7.84517 59.4102 7.91974 59.1617 8.06889C58.9164 8.21473 58.7242 8.41193 58.585 8.66051C58.4458 8.90578 58.3745 9.17921 58.3712 9.48082V10.7287C58.3712 11.1065 58.4408 11.433 58.58 11.7081C58.7225 11.9832 58.923 12.1953 59.1816 12.3445C59.4401 12.4936 59.7467 12.5682 60.1013 12.5682C60.3366 12.5682 60.5521 12.535 60.7476 12.4688C60.9432 12.4025 61.1105 12.303 61.2497 12.1705C61.3889 12.0379 61.495 11.8755 61.5679 11.6832L63.5267 11.8125C63.4273 12.2831 63.2235 12.6941 62.9152 13.0455C62.6103 13.3935 62.2159 13.6652 61.732 13.8608C61.2514 14.053 60.6962 14.1491 60.0665 14.1491ZM64.9933 14V3.81818H67.1112V7.64631H67.1759C67.2687 7.44081 67.4029 7.23201 67.5786 7.01989C67.7575 6.80445 67.9896 6.62547 68.2746 6.48295C68.5629 6.33712 68.9209 6.2642 69.3485 6.2642C69.9053 6.2642 70.419 6.41004 70.8896 6.7017C71.3603 6.99006 71.7365 7.4259 72.0182 8.00923C72.2999 8.58925 72.4408 9.31676 72.4408 10.1918C72.4408 11.0436 72.3032 11.7628 72.0281 12.3494C71.7564 12.9328 71.3852 13.3752 70.9145 13.6768C70.4472 13.9751 69.9235 14.1243 69.3435 14.1243C68.9325 14.1243 68.5828 14.0563 68.2945 13.9205C68.0094 13.7846 67.7758 13.6139 67.5935 13.4084C67.4112 13.1996 67.272 12.9891 67.1759 12.777H67.0814V14H64.9933ZM67.0665 10.1818C67.0665 10.6359 67.1295 11.032 67.2554 11.37C67.3814 11.7081 67.5637 11.9716 67.8023 12.1605C68.0409 12.3461 68.3309 12.4389 68.6723 12.4389C69.017 12.4389 69.3087 12.3445 69.5473 12.1555C69.786 11.9633 69.9666 11.6982 70.0892 11.3601C70.2152 11.0187 70.2781 10.6259 70.2781 10.1818C70.2781 9.741 70.2168 9.35322 70.0942 9.01847C69.9716 8.68371 69.7909 8.42187 69.5523 8.23295C69.3137 8.04403 69.0203 7.94957 68.6723 7.94957C68.3276 7.94957 68.036 8.04072 67.7973 8.22301C67.562 8.4053 67.3814 8.66383 67.2554 8.99858C67.1295 9.33333 67.0665 9.72775 67.0665 10.1818ZM82.6574 6.74645C82.6176 6.34541 82.4469 6.03385 82.1453 5.81179C81.8437 5.58972 81.4344 5.47869 80.9173 5.47869C80.566 5.47869 80.2694 5.52841 80.0274 5.62784C79.7855 5.72396 79.5999 5.85819 79.4706 6.03054C79.3447 6.20289 79.2817 6.39844 79.2817 6.61719C79.2751 6.79948 79.3132 6.95857 79.396 7.09446C79.4822 7.23035 79.5999 7.34801 79.749 7.44744C79.8982 7.54356 80.0705 7.62808 80.2661 7.70099C80.4616 7.7706 80.6704 7.83026 80.8925 7.87997L81.8073 8.09872C82.2514 8.19815 82.6591 8.33073 83.0303 8.49645C83.4015 8.66217 83.723 8.866 83.9948 9.10795C84.2665 9.34991 84.477 9.63494 84.6262 9.96307C84.7786 10.2912 84.8565 10.6674 84.8598 11.0916C84.8565 11.7147 84.6974 12.255 84.3825 12.7124C84.071 13.1664 83.6202 13.5194 83.0303 13.7713C82.4436 14.0199 81.736 14.1442 80.9074 14.1442C80.0854 14.1442 79.3695 14.0182 78.7597 13.7663C78.1531 13.5144 77.6792 13.1416 77.3378 12.6477C76.9997 12.1506 76.8224 11.5357 76.8058 10.8033H78.8889C78.9121 11.1446 79.0099 11.4297 79.1823 11.6584C79.3579 11.8838 79.5916 12.0545 79.8833 12.1705C80.1782 12.2831 80.5113 12.3395 80.8825 12.3395C81.2471 12.3395 81.5637 12.2865 81.8321 12.1804C82.1039 12.0743 82.3144 11.9268 82.4635 11.7379C82.6127 11.549 82.6872 11.3319 82.6872 11.0866C82.6872 10.858 82.6193 10.6657 82.4834 10.5099C82.3508 10.3542 82.1553 10.2216 81.8968 10.1122C81.6415 10.0028 81.3283 9.90341 80.9571 9.81392L79.8485 9.53551C78.99 9.3267 78.3122 9.00024 77.8151 8.55611C77.3179 8.11198 77.071 7.51373 77.0743 6.76136C77.071 6.14489 77.2351 5.6063 77.5665 5.1456C77.9012 4.6849 78.3603 4.32528 78.9436 4.06676C79.527 3.80824 80.1898 3.67898 80.9323 3.67898C81.6879 3.67898 82.3475 3.80824 82.911 4.06676C83.4777 4.32528 83.9185 4.6849 84.2334 5.1456C84.5483 5.6063 84.7107 6.13991 84.7206 6.74645H82.6574ZM89.7183 14.1491C88.9461 14.1491 88.2782 13.9851 87.7148 13.657C87.1546 13.3255 86.7221 12.8648 86.4172 12.2749C86.1122 11.6816 85.9598 10.9938 85.9598 10.2116C85.9598 9.42282 86.1122 8.73343 86.4172 8.14347C86.7221 7.55019 87.1546 7.08949 87.7148 6.76136C88.2782 6.42992 88.9461 6.2642 89.7183 6.2642C90.4906 6.2642 91.1568 6.42992 91.7169 6.76136C92.2803 7.08949 92.7145 7.55019 93.0194 8.14347C93.3244 8.73343 93.4768 9.42282 93.4768 10.2116C93.4768 10.9938 93.3244 11.6816 93.0194 12.2749C92.7145 12.8648 92.2803 13.3255 91.7169 13.657C91.1568 13.9851 90.4906 14.1491 89.7183 14.1491ZM89.7282 12.5085C90.0796 12.5085 90.3729 12.4091 90.6082 12.2102C90.8435 12.008 91.0209 11.733 91.1402 11.3849C91.2628 11.0369 91.3241 10.6409 91.3241 10.1967C91.3241 9.7526 91.2628 9.35653 91.1402 9.00852C91.0209 8.66051 90.8435 8.38542 90.6082 8.18324C90.3729 7.98106 90.0796 7.87997 89.7282 7.87997C89.3736 7.87997 89.0753 7.98106 88.8334 8.18324C88.5947 8.38542 88.4141 8.66051 88.2915 9.00852C88.1721 9.35653 88.1125 9.7526 88.1125 10.1967C88.1125 10.6409 88.1721 11.0369 88.2915 11.3849C88.4141 11.733 88.5947 12.008 88.8334 12.2102C89.0753 12.4091 89.3736 12.5085 89.7282 12.5085ZM96.9719 3.81818V14H94.854V3.81818H96.9719ZM103.565 10.7486V6.36364H105.683V14H103.65V12.6129H103.57C103.398 13.0604 103.111 13.42 102.71 13.6918C102.313 13.9635 101.827 14.0994 101.254 14.0994C100.743 14.0994 100.294 13.9834 99.9063 13.7514C99.5186 13.5194 99.2153 13.1896 98.9965 12.7621C98.7811 12.3345 98.6717 11.8224 98.6684 11.2259V6.36364H100.786V10.848C100.79 11.2988 100.911 11.6551 101.149 11.9169C101.388 12.1787 101.708 12.3097 102.109 12.3097C102.364 12.3097 102.603 12.2517 102.825 12.1357C103.047 12.0163 103.226 11.8407 103.362 11.6087C103.501 11.3767 103.569 11.09 103.565 10.7486ZM111.439 6.36364V7.95455H106.84V6.36364H111.439ZM107.884 4.53409H110.002V11.6534C110.002 11.849 110.032 12.0014 110.092 12.1108C110.152 12.2169 110.234 12.2914 110.34 12.3345C110.45 12.3776 110.576 12.3991 110.718 12.3991C110.818 12.3991 110.917 12.3909 111.017 12.3743C111.116 12.3544 111.192 12.3395 111.245 12.3295L111.578 13.9055C111.472 13.9387 111.323 13.9768 111.131 14.0199C110.939 14.0663 110.705 14.0945 110.43 14.1044C109.92 14.1243 109.472 14.0563 109.088 13.9006C108.706 13.7448 108.41 13.5028 108.198 13.1747C107.986 12.8466 107.881 12.4323 107.884 11.9318V4.53409ZM112.819 14V6.36364H114.937V14H112.819ZM113.888 5.37926C113.573 5.37926 113.303 5.27486 113.077 5.06605C112.852 4.85393 112.739 4.60038 112.739 4.3054C112.739 4.01373 112.852 3.76349 113.077 3.55469C113.303 3.34257 113.571 3.23651 113.883 3.23651C114.201 3.23651 114.471 3.34257 114.693 3.55469C114.918 3.76349 115.031 4.01373 115.031 4.3054C115.031 4.60038 114.918 4.85393 114.693 5.06605C114.471 5.27486 114.203 5.37926 113.888 5.37926ZM120.084 14.1491C119.311 14.1491 118.643 13.9851 118.08 13.657C117.52 13.3255 117.087 12.8648 116.782 12.2749C116.477 11.6816 116.325 10.9938 116.325 10.2116C116.325 9.42282 116.477 8.73343 116.782 8.14347C117.087 7.55019 117.52 7.08949 118.08 6.76136C118.643 6.42992 119.311 6.2642 120.084 6.2642C120.856 6.2642 121.522 6.42992 122.082 6.76136C122.646 7.08949 123.08 7.55019 123.385 8.14347C123.69 8.73343 123.842 9.42282 123.842 10.2116C123.842 10.9938 123.69 11.6816 123.385 12.2749C123.08 12.8648 122.646 13.3255 122.082 13.657C121.522 13.9851 120.856 14.1491 120.084 14.1491ZM120.093 12.5085C120.445 12.5085 120.738 12.4091 120.973 12.2102C121.209 12.008 121.386 11.733 121.505 11.3849C121.628 11.0369 121.689 10.6409 121.689 10.1967C121.689 9.7526 121.628 9.35653 121.505 9.00852C121.386 8.66051 121.209 8.38542 120.973 8.18324C120.738 7.98106 120.445 7.87997 120.093 7.87997C119.739 7.87997 119.441 7.98106 119.199 8.18324C118.96 8.38542 118.779 8.66051 118.657 9.00852C118.537 9.35653 118.478 9.7526 118.478 10.1967C118.478 10.6409 118.537 11.0369 118.657 11.3849C118.779 11.733 118.96 12.008 119.199 12.2102C119.441 12.4091 119.739 12.5085 120.093 12.5085ZM127.337 9.58523V14H125.219V6.36364H127.238V7.71094H127.327C127.496 7.26681 127.78 6.91548 128.177 6.65696C128.575 6.39512 129.057 6.2642 129.624 6.2642C130.154 6.2642 130.617 6.38021 131.011 6.61222C131.406 6.84422 131.712 7.17566 131.931 7.60653C132.15 8.03409 132.259 8.54451 132.259 9.13778V14H130.141V9.51562C130.144 9.0483 130.025 8.68371 129.783 8.42188C129.541 8.15672 129.208 8.02415 128.784 8.02415C128.499 8.02415 128.247 8.08546 128.028 8.2081C127.813 8.33073 127.644 8.50971 127.521 8.74503C127.402 8.97704 127.34 9.2571 127.337 9.58523ZM140.282 8.54119L138.343 8.66051C138.31 8.49479 138.239 8.34564 138.129 8.21307C138.02 8.07718 137.876 7.96946 137.697 7.88991C137.521 7.80705 137.311 7.76562 137.065 7.76562C136.737 7.76562 136.46 7.83523 136.235 7.97443C136.01 8.11032 135.897 8.29261 135.897 8.52131C135.897 8.7036 135.97 8.85772 136.116 8.98366C136.262 9.10961 136.512 9.2107 136.866 9.28693L138.248 9.56534C138.991 9.7178 139.544 9.96307 139.909 10.3011C140.274 10.6392 140.456 11.0833 140.456 11.6335C140.456 12.134 140.308 12.5732 140.013 12.951C139.722 13.3288 139.321 13.6238 138.81 13.8359C138.303 14.0447 137.718 14.1491 137.055 14.1491C136.044 14.1491 135.239 13.9387 134.639 13.5178C134.043 13.0935 133.693 12.5168 133.59 11.7876L135.673 11.6783C135.736 11.9865 135.889 12.2218 136.131 12.3842C136.373 12.5433 136.682 12.6229 137.06 12.6229C137.431 12.6229 137.73 12.5516 137.955 12.4091C138.184 12.2633 138.3 12.076 138.303 11.8473C138.3 11.6551 138.219 11.4976 138.06 11.375C137.9 11.2491 137.655 11.1529 137.324 11.0866L136.001 10.8232C135.256 10.674 134.7 10.4155 134.336 10.0476C133.975 9.67969 133.794 9.2107 133.794 8.64062C133.794 8.15009 133.927 7.72751 134.192 7.37287C134.46 7.01823 134.836 6.74479 135.32 6.55256C135.807 6.36032 136.378 6.2642 137.03 6.2642C137.995 6.2642 138.754 6.46804 139.307 6.87571C139.864 7.28338 140.189 7.83854 140.282 8.54119Z" fill="#E1EDF8"/>
</svg>
