<svg width="247" height="36" viewBox="0 0 247 36" fill="none" xmlns="http://www.w3.org/2000/svg">
<path d="M12.3191 9.152V20.624C12.3191 22.4 11.8151 23.768 10.8071 24.728C9.8151 25.688 8.4711 26.168 6.7751 26.168C4.9991 26.168 3.5751 25.664 2.5031 24.656C1.4311 23.648 0.895095 22.216 0.895095 20.36H4.9751C4.9751 21.064 5.1191 21.6 5.4071 21.968C5.6951 22.32 6.1111 22.496 6.6551 22.496C7.1511 22.496 7.5351 22.336 7.8071 22.016C8.0791 21.696 8.2151 21.232 8.2151 20.624V9.152H12.3191ZM28.5221 23.024H22.2341L21.2261 26H16.9301L23.0261 9.152H27.7781L33.8741 26H29.5301L28.5221 23.024ZM27.4661 19.856L25.3781 13.688L23.3141 19.856H27.4661ZM46.7214 26L43.2174 19.64H42.2334V26H38.1294V9.152H45.0174C46.3454 9.152 47.4734 9.384 48.4014 9.848C49.3454 10.312 50.0494 10.952 50.5134 11.768C50.9774 12.568 51.2094 13.464 51.2094 14.456C51.2094 15.576 50.8894 16.576 50.2494 17.456C49.6254 18.336 48.6974 18.96 47.4654 19.328L51.3534 26H46.7214ZM42.2334 16.736H44.7774C45.5294 16.736 46.0894 16.552 46.4574 16.184C46.8414 15.816 47.0334 15.296 47.0334 14.624C47.0334 13.984 46.8414 13.48 46.4574 13.112C46.0894 12.744 45.5294 12.56 44.7774 12.56H42.2334V16.736ZM75.2657 9.152V26H71.1617V15.896L67.3937 26H64.0817L60.2897 15.872V26H56.1857V9.152H61.0337L65.7617 20.816L70.4417 9.152H75.2657Z" fill="#093763"/>
<path d="M94.9884 9.152L90.5964 26H85.6284L82.9404 14.912L80.1564 26H75.1884L70.9164 9.152H75.3084L77.7324 21.416L80.7324 9.152H85.2444L88.1244 21.416L90.5724 9.152H94.9884ZM109.671 19.088C109.671 19.472 109.647 19.872 109.599 20.288H100.311C100.375 21.12 100.639 21.76 101.103 22.208C101.583 22.64 102.167 22.856 102.855 22.856C103.879 22.856 104.591 22.424 104.991 21.56H109.359C109.135 22.44 108.727 23.232 108.135 23.936C107.559 24.64 106.831 25.192 105.951 25.592C105.071 25.992 104.087 26.192 102.999 26.192C101.687 26.192 100.519 25.912 99.4946 25.352C98.4706 24.792 97.6706 23.992 97.0946 22.952C96.5186 21.912 96.2306 20.696 96.2306 19.304C96.2306 17.912 96.5106 16.696 97.0706 15.656C97.6466 14.616 98.4466 13.816 99.4706 13.256C100.495 12.696 101.671 12.416 102.999 12.416C104.295 12.416 105.447 12.688 106.455 13.232C107.463 13.776 108.247 14.552 108.807 15.56C109.383 16.568 109.671 17.744 109.671 19.088ZM105.471 18.008C105.471 17.304 105.231 16.744 104.751 16.328C104.271 15.912 103.671 15.704 102.951 15.704C102.263 15.704 101.679 15.904 101.199 16.304C100.735 16.704 100.447 17.272 100.335 18.008H105.471ZM115.94 14.504C116.324 13.88 116.876 13.376 117.596 12.992C118.316 12.608 119.14 12.416 120.068 12.416C121.172 12.416 122.172 12.696 123.068 13.256C123.964 13.816 124.668 14.616 125.18 15.656C125.708 16.696 125.972 17.904 125.972 19.28C125.972 20.656 125.708 21.872 125.18 22.928C124.668 23.968 123.964 24.776 123.068 25.352C122.172 25.912 121.172 26.192 120.068 26.192C119.124 26.192 118.3 26.008 117.596 25.64C116.892 25.256 116.34 24.752 115.94 24.128V26H111.836V8.24H115.94V14.504ZM121.796 19.28C121.796 18.256 121.508 17.456 120.932 16.88C120.372 16.288 119.676 15.992 118.844 15.992C118.028 15.992 117.332 16.288 116.756 16.88C116.196 17.472 115.916 18.28 115.916 19.304C115.916 20.328 116.196 21.136 116.756 21.728C117.332 22.32 118.028 22.616 118.844 22.616C119.66 22.616 120.356 22.32 120.932 21.728C121.508 21.12 121.796 20.304 121.796 19.28ZM139.307 26.168C138.075 26.168 136.971 25.968 135.995 25.568C135.019 25.168 134.235 24.576 133.643 23.792C133.067 23.008 132.763 22.064 132.731 20.96H137.099C137.163 21.584 137.379 22.064 137.747 22.4C138.115 22.72 138.595 22.88 139.187 22.88C139.795 22.88 140.275 22.744 140.627 22.472C140.979 22.184 141.155 21.792 141.155 21.296C141.155 20.88 141.011 20.536 140.723 20.264C140.451 19.992 140.107 19.768 139.691 19.592C139.291 19.416 138.715 19.216 137.963 18.992C136.875 18.656 135.987 18.32 135.299 17.984C134.611 17.648 134.019 17.152 133.523 16.496C133.027 15.84 132.779 14.984 132.779 13.928C132.779 12.36 133.347 11.136 134.483 10.256C135.619 9.36 137.099 8.912 138.923 8.912C140.779 8.912 142.275 9.36 143.411 10.256C144.547 11.136 145.155 12.368 145.235 13.952H140.795C140.763 13.408 140.563 12.984 140.195 12.68C139.827 12.36 139.355 12.2 138.779 12.2C138.283 12.2 137.883 12.336 137.579 12.608C137.275 12.864 137.123 13.24 137.123 13.736C137.123 14.28 137.379 14.704 137.891 15.008C138.403 15.312 139.203 15.64 140.291 15.992C141.379 16.36 142.259 16.712 142.931 17.048C143.619 17.384 144.211 17.872 144.707 18.512C145.203 19.152 145.451 19.976 145.451 20.984C145.451 21.944 145.203 22.816 144.707 23.6C144.227 24.384 143.523 25.008 142.595 25.472C141.667 25.936 140.571 26.168 139.307 26.168ZM154.072 26.192C152.76 26.192 151.576 25.912 150.52 25.352C149.48 24.792 148.656 23.992 148.048 22.952C147.456 21.912 147.16 20.696 147.16 19.304C147.16 17.928 147.464 16.72 148.072 15.68C148.68 14.624 149.512 13.816 150.568 13.256C151.624 12.696 152.808 12.416 154.12 12.416C155.432 12.416 156.616 12.696 157.672 13.256C158.728 13.816 159.56 14.624 160.168 15.68C160.776 16.72 161.08 17.928 161.08 19.304C161.08 20.68 160.768 21.896 160.144 22.952C159.536 23.992 158.696 24.792 157.624 25.352C156.568 25.912 155.384 26.192 154.072 26.192ZM154.072 22.64C154.856 22.64 155.52 22.352 156.064 21.776C156.624 21.2 156.904 20.376 156.904 19.304C156.904 18.232 156.632 17.408 156.088 16.832C155.56 16.256 154.904 15.968 154.12 15.968C153.32 15.968 152.656 16.256 152.128 16.832C151.6 17.392 151.336 18.216 151.336 19.304C151.336 20.376 151.592 21.2 152.104 21.776C152.632 22.352 153.288 22.64 154.072 22.64ZM167.362 8.24V26H163.258V8.24H167.362ZM183.56 12.608V26H179.456V24.176C179.04 24.768 178.472 25.248 177.752 25.616C177.048 25.968 176.264 26.144 175.4 26.144C174.376 26.144 173.472 25.92 172.688 25.472C171.904 25.008 171.296 24.344 170.864 23.48C170.432 22.616 170.216 21.6 170.216 20.432V12.608H174.296V19.88C174.296 20.776 174.528 21.472 174.992 21.968C175.456 22.464 176.08 22.712 176.864 22.712C177.664 22.712 178.296 22.464 178.76 21.968C179.224 21.472 179.456 20.776 179.456 19.88V12.608H183.56ZM193.972 22.52V26H191.884C190.396 26 189.236 25.64 188.404 24.92C187.572 24.184 187.156 22.992 187.156 21.344V16.016H185.524V12.608H187.156V9.344H191.26V12.608H193.948V16.016H191.26V21.392C191.26 21.792 191.356 22.08 191.548 22.256C191.74 22.432 192.06 22.52 192.508 22.52H193.972ZM198.322 11.216C197.602 11.216 197.01 11.008 196.546 10.592C196.098 10.16 195.874 9.632 195.874 9.008C195.874 8.368 196.098 7.84 196.546 7.424C197.01 6.992 197.602 6.776 198.322 6.776C199.026 6.776 199.602 6.992 200.05 7.424C200.514 7.84 200.746 8.368 200.746 9.008C200.746 9.632 200.514 10.16 200.05 10.592C199.602 11.008 199.026 11.216 198.322 11.216ZM200.362 12.608V26H196.258V12.608H200.362ZM209.432 26.192C208.12 26.192 206.936 25.912 205.88 25.352C204.84 24.792 204.016 23.992 203.408 22.952C202.816 21.912 202.52 20.696 202.52 19.304C202.52 17.928 202.824 16.72 203.432 15.68C204.04 14.624 204.872 13.816 205.928 13.256C206.984 12.696 208.168 12.416 209.48 12.416C210.792 12.416 211.976 12.696 213.032 13.256C214.088 13.816 214.92 14.624 215.528 15.68C216.136 16.72 216.44 17.928 216.44 19.304C216.44 20.68 216.128 21.896 215.504 22.952C214.896 23.992 214.056 24.792 212.984 25.352C211.928 25.912 210.744 26.192 209.432 26.192ZM209.432 22.64C210.216 22.64 210.88 22.352 211.424 21.776C211.984 21.2 212.264 20.376 212.264 19.304C212.264 18.232 211.992 17.408 211.448 16.832C210.92 16.256 210.264 15.968 209.48 15.968C208.68 15.968 208.016 16.256 207.488 16.832C206.96 17.392 206.696 18.216 206.696 19.304C206.696 20.376 206.952 21.2 207.464 21.776C207.992 22.352 208.648 22.64 209.432 22.64ZM226.777 12.464C228.345 12.464 229.593 12.976 230.521 14C231.465 15.008 231.937 16.4 231.937 18.176V26H227.857V18.728C227.857 17.832 227.625 17.136 227.161 16.64C226.697 16.144 226.073 15.896 225.289 15.896C224.505 15.896 223.881 16.144 223.417 16.64C222.953 17.136 222.721 17.832 222.721 18.728V26H218.617V12.608H222.721V14.384C223.137 13.792 223.697 13.328 224.401 12.992C225.105 12.64 225.897 12.464 226.777 12.464ZM240.237 26.192C239.069 26.192 238.029 25.992 237.117 25.592C236.205 25.192 235.485 24.648 234.957 23.96C234.429 23.256 234.133 22.472 234.069 21.608H238.125C238.173 22.072 238.389 22.448 238.773 22.736C239.157 23.024 239.629 23.168 240.189 23.168C240.701 23.168 241.093 23.072 241.365 22.88C241.653 22.672 241.797 22.408 241.797 22.088C241.797 21.704 241.597 21.424 241.197 21.248C240.797 21.056 240.149 20.848 239.253 20.624C238.293 20.4 237.493 20.168 236.853 19.928C236.213 19.672 235.661 19.28 235.197 18.752C234.733 18.208 234.501 17.48 234.501 16.568C234.501 15.8 234.709 15.104 235.125 14.48C235.557 13.84 236.181 13.336 236.997 12.968C237.829 12.6 238.813 12.416 239.949 12.416C241.629 12.416 242.949 12.832 243.909 13.664C244.885 14.496 245.445 15.6 245.589 16.976H241.797C241.733 16.512 241.525 16.144 241.173 15.872C240.837 15.6 240.389 15.464 239.829 15.464C239.349 15.464 238.981 15.56 238.725 15.752C238.469 15.928 238.341 16.176 238.341 16.496C238.341 16.88 238.541 17.168 238.941 17.36C239.357 17.552 239.997 17.744 240.861 17.936C241.853 18.192 242.661 18.448 243.285 18.704C243.909 18.944 244.453 19.344 244.917 19.904C245.397 20.448 245.645 21.184 245.661 22.112C245.661 22.896 245.437 23.6 244.989 24.224C244.557 24.832 243.925 25.312 243.093 25.664C242.277 26.016 241.325 26.192 240.237 26.192Z" fill="#337DC1"/>
</svg>
