<svg width="203" height="44" viewBox="0 0 203 44" fill="none" xmlns="http://www.w3.org/2000/svg">
<rect width="203" height="44" rx="6" fill="#B4B4B4"/>
<path d="M87.6719 24.44V26H81.1679V17.6H87.5159V19.16H83.0999V20.984H86.9999V22.496H83.0999V24.44H87.6719ZM89.2123 21.872H92.6083V23.372H89.2123V21.872ZM102.949 19.448C103.757 19.448 104.397 19.688 104.869 20.168C105.349 20.64 105.589 21.352 105.589 22.304V26H103.717V22.592C103.717 22.08 103.609 21.7 103.393 21.452C103.185 21.196 102.885 21.068 102.493 21.068C102.053 21.068 101.705 21.212 101.449 21.5C101.193 21.78 101.065 22.2 101.065 22.76V26H99.1932V22.592C99.1932 21.576 98.7852 21.068 97.9692 21.068C97.5372 21.068 97.1932 21.212 96.9372 21.5C96.6812 21.78 96.5532 22.2 96.5532 22.76V26H94.6812V19.544H96.4692V20.288C96.7092 20.016 97.0012 19.808 97.3452 19.664C97.6972 19.52 98.0812 19.448 98.4972 19.448C98.9532 19.448 99.3652 19.54 99.7332 19.724C100.101 19.9 100.397 20.16 100.621 20.504C100.885 20.168 101.217 19.908 101.617 19.724C102.025 19.54 102.469 19.448 102.949 19.448ZM110.471 19.448C111.471 19.448 112.239 19.688 112.775 20.168C113.311 20.64 113.579 21.356 113.579 22.316V26H111.827V25.196C111.475 25.796 110.819 26.096 109.859 26.096C109.363 26.096 108.931 26.012 108.563 25.844C108.203 25.676 107.927 25.444 107.735 25.148C107.543 24.852 107.447 24.516 107.447 24.14C107.447 23.54 107.671 23.068 108.119 22.724C108.575 22.38 109.275 22.208 110.219 22.208H111.707C111.707 21.8 111.583 21.488 111.335 21.272C111.087 21.048 110.715 20.936 110.219 20.936C109.875 20.936 109.535 20.992 109.199 21.104C108.871 21.208 108.591 21.352 108.359 21.536L107.687 20.228C108.039 19.98 108.459 19.788 108.947 19.652C109.443 19.516 109.951 19.448 110.471 19.448ZM110.327 24.836C110.647 24.836 110.931 24.764 111.179 24.62C111.427 24.468 111.603 24.248 111.707 23.96V23.3H110.423C109.655 23.3 109.271 23.552 109.271 24.056C109.271 24.296 109.363 24.488 109.547 24.632C109.739 24.768 109.999 24.836 110.327 24.836ZM115.873 19.544H117.745V26H115.873V19.544ZM116.809 18.644C116.465 18.644 116.185 18.544 115.969 18.344C115.753 18.144 115.645 17.896 115.645 17.6C115.645 17.304 115.753 17.056 115.969 16.856C116.185 16.656 116.465 16.556 116.809 16.556C117.153 16.556 117.433 16.652 117.649 16.844C117.865 17.036 117.973 17.276 117.973 17.564C117.973 17.876 117.865 18.136 117.649 18.344C117.433 18.544 117.153 18.644 116.809 18.644ZM120.083 17.096H121.955V26H120.083V17.096Z" fill="white"/>
<path d="M37.2599 24.215C37.2599 25.265 37.5587 25.6837 38.3399 25.6837C40.0812 25.6837 41.1899 23.465 41.1899 19.775C41.1899 14.135 37.0799 11.435 31.9487 11.435C26.6699 11.435 21.8687 14.975 21.8687 21.665C21.8687 28.055 26.0687 31.535 32.5187 31.535C34.7087 31.535 36.1787 31.295 38.4274 30.545L38.9099 32.5537C36.6899 33.275 34.3174 33.4837 32.4887 33.4837C24.0287 33.4837 19.4974 28.8337 19.4974 21.6637C19.4974 14.4337 24.7487 9.51375 31.9787 9.51375C39.5087 9.51375 43.4974 14.0137 43.4974 19.5337C43.4974 24.2137 42.0287 27.7837 37.4087 27.7837C35.3074 27.7837 33.9287 26.9437 33.7487 25.0825C33.2087 27.1525 31.7687 27.7837 29.8174 27.7837C27.2074 27.7837 25.0174 25.7725 25.0174 21.7237C25.0174 17.6437 26.9387 15.1237 30.3887 15.1237C32.2187 15.1237 33.3587 15.8437 33.8662 16.9837L34.7374 15.3937H37.2574V24.215H37.2599ZM33.5712 20.255C33.5712 18.6062 32.3399 17.915 31.3199 17.915C30.2099 17.915 28.9812 18.8137 28.9812 21.455C28.9812 23.555 29.9112 24.725 31.3199 24.725C32.3099 24.725 33.5712 24.095 33.5712 22.355V20.255Z" fill="white"/>
</svg>
