<svg width="203" height="44" viewBox="0 0 203 44" fill="none" xmlns="http://www.w3.org/2000/svg">
<rect width="203" height="44" rx="6" fill="#40B3E0"/>
<path d="M72.1399 19.184H69.4519V17.6H76.7719V19.184H74.0839V26H72.1399V19.184ZM83.9536 22.796C83.9536 22.82 83.9416 22.988 83.9176 23.3H79.0336C79.1216 23.7 79.3296 24.016 79.6576 24.248C79.9856 24.48 80.3936 24.596 80.8816 24.596C81.2176 24.596 81.5136 24.548 81.7696 24.452C82.0336 24.348 82.2776 24.188 82.5016 23.972L83.4976 25.052C82.8896 25.748 82.0016 26.096 80.8336 26.096C80.1056 26.096 79.4616 25.956 78.9016 25.676C78.3416 25.388 77.9096 24.992 77.6056 24.488C77.3016 23.984 77.1496 23.412 77.1496 22.772C77.1496 22.14 77.2976 21.572 77.5936 21.068C77.8976 20.556 78.3096 20.16 78.8296 19.88C79.3576 19.592 79.9456 19.448 80.5936 19.448C81.2256 19.448 81.7976 19.584 82.3096 19.856C82.8216 20.128 83.2216 20.52 83.5096 21.032C83.8056 21.536 83.9536 22.124 83.9536 22.796ZM80.6056 20.864C80.1816 20.864 79.8256 20.984 79.5376 21.224C79.2496 21.464 79.0736 21.792 79.0096 22.208H82.1896C82.1256 21.8 81.9496 21.476 81.6616 21.236C81.3736 20.988 81.0216 20.864 80.6056 20.864ZM85.7999 17.096H87.6719V26H85.7999V17.096ZM96.3333 22.796C96.3333 22.82 96.3213 22.988 96.2973 23.3H91.4133C91.5013 23.7 91.7093 24.016 92.0373 24.248C92.3653 24.48 92.7733 24.596 93.2613 24.596C93.5973 24.596 93.8933 24.548 94.1493 24.452C94.4133 24.348 94.6573 24.188 94.8813 23.972L95.8773 25.052C95.2693 25.748 94.3813 26.096 93.2133 26.096C92.4853 26.096 91.8413 25.956 91.2813 25.676C90.7213 25.388 90.2893 24.992 89.9853 24.488C89.6813 23.984 89.5293 23.412 89.5293 22.772C89.5293 22.14 89.6773 21.572 89.9733 21.068C90.2773 20.556 90.6893 20.16 91.2093 19.88C91.7373 19.592 92.3253 19.448 92.9733 19.448C93.6053 19.448 94.1773 19.584 94.6893 19.856C95.2013 20.128 95.6013 20.52 95.8893 21.032C96.1853 21.536 96.3333 22.124 96.3333 22.796ZM92.9853 20.864C92.5613 20.864 92.2053 20.984 91.9173 21.224C91.6293 21.464 91.4533 21.792 91.3893 22.208H94.5693C94.5053 21.8 94.3293 21.476 94.0413 21.236C93.7533 20.988 93.4013 20.864 92.9853 20.864ZM104.84 19.544V24.92C104.84 26.104 104.532 26.984 103.916 27.56C103.3 28.136 102.4 28.424 101.216 28.424C100.592 28.424 99.9996 28.348 99.4396 28.196C98.8796 28.044 98.4156 27.824 98.0476 27.536L98.7916 26.192C99.0636 26.416 99.4076 26.592 99.8236 26.72C100.24 26.856 100.656 26.924 101.072 26.924C101.72 26.924 102.196 26.776 102.5 26.48C102.812 26.192 102.968 25.752 102.968 25.16V24.884C102.48 25.42 101.8 25.688 100.928 25.688C100.336 25.688 99.7916 25.56 99.2956 25.304C98.8076 25.04 98.4196 24.672 98.1316 24.2C97.8436 23.728 97.6996 23.184 97.6996 22.568C97.6996 21.952 97.8436 21.408 98.1316 20.936C98.4196 20.464 98.8076 20.1 99.2956 19.844C99.7916 19.58 100.336 19.448 100.928 19.448C101.864 19.448 102.576 19.756 103.064 20.372V19.544H104.84ZM101.3 24.152C101.796 24.152 102.2 24.008 102.512 23.72C102.832 23.424 102.992 23.04 102.992 22.568C102.992 22.096 102.832 21.716 102.512 21.428C102.2 21.132 101.796 20.984 101.3 20.984C100.804 20.984 100.396 21.132 100.076 21.428C99.7556 21.716 99.5956 22.096 99.5956 22.568C99.5956 23.04 99.7556 23.424 100.076 23.72C100.396 24.008 100.804 24.152 101.3 24.152ZM108.97 20.396C109.194 20.084 109.494 19.848 109.87 19.688C110.254 19.528 110.694 19.448 111.19 19.448V21.176C110.982 21.16 110.842 21.152 110.77 21.152C110.234 21.152 109.814 21.304 109.51 21.608C109.206 21.904 109.054 22.352 109.054 22.952V26H107.182V19.544H108.97V20.396ZM115.472 19.448C116.472 19.448 117.24 19.688 117.776 20.168C118.312 20.64 118.58 21.356 118.58 22.316V26H116.828V25.196C116.476 25.796 115.82 26.096 114.86 26.096C114.364 26.096 113.932 26.012 113.564 25.844C113.204 25.676 112.928 25.444 112.736 25.148C112.544 24.852 112.448 24.516 112.448 24.14C112.448 23.54 112.672 23.068 113.12 22.724C113.576 22.38 114.276 22.208 115.22 22.208H116.708C116.708 21.8 116.584 21.488 116.336 21.272C116.088 21.048 115.716 20.936 115.22 20.936C114.876 20.936 114.536 20.992 114.2 21.104C113.872 21.208 113.592 21.352 113.36 21.536L112.688 20.228C113.04 19.98 113.46 19.788 113.948 19.652C114.444 19.516 114.952 19.448 115.472 19.448ZM115.328 24.836C115.648 24.836 115.932 24.764 116.18 24.62C116.428 24.468 116.604 24.248 116.708 23.96V23.3H115.424C114.656 23.3 114.272 23.552 114.272 24.056C114.272 24.296 114.364 24.488 114.548 24.632C114.74 24.768 115 24.836 115.328 24.836ZM129.142 19.448C129.95 19.448 130.59 19.688 131.062 20.168C131.542 20.64 131.782 21.352 131.782 22.304V26H129.91V22.592C129.91 22.08 129.802 21.7 129.586 21.452C129.378 21.196 129.078 21.068 128.686 21.068C128.246 21.068 127.898 21.212 127.642 21.5C127.386 21.78 127.258 22.2 127.258 22.76V26H125.386V22.592C125.386 21.576 124.978 21.068 124.162 21.068C123.73 21.068 123.386 21.212 123.13 21.5C122.874 21.78 122.746 22.2 122.746 22.76V26H120.874V19.544H122.662V20.288C122.902 20.016 123.194 19.808 123.538 19.664C123.89 19.52 124.274 19.448 124.69 19.448C125.146 19.448 125.558 19.54 125.926 19.724C126.294 19.9 126.59 20.16 126.814 20.504C127.078 20.168 127.41 19.908 127.81 19.724C128.218 19.54 128.662 19.448 129.142 19.448Z" fill="white"/>
<path d="M30 7C21.7157 7 15 13.7157 15 22C15 30.2843 21.7157 37 30 37C38.2843 37 45 30.2843 45 22C45 13.7157 38.2843 7 30 7Z" fill="#40B3E0"/>
<path d="M37.2988 15.6286L34.6196 29.1366C34.6196 29.1366 34.2449 30.0734 33.2145 29.6238L27.0319 24.8838L24.7838 23.7972L20.9993 22.5232C20.9993 22.5232 20.4185 22.3172 20.3623 21.8675C20.306 21.4179 21.0181 21.1743 21.0181 21.1743L36.0621 15.2728C36.0621 15.2728 37.2987 14.7295 37.2987 15.6288" fill="white"/>
<path d="M26.5567 28.9846C26.5567 28.9846 26.3763 28.9677 26.1513 28.2557C25.9266 27.5438 24.7837 23.7968 24.7837 23.7968L33.8702 18.0265C33.8702 18.0265 34.3948 17.708 34.3761 18.0265C34.3761 18.0265 34.4697 18.0828 34.1886 18.345C33.9077 18.6074 27.0507 24.7711 27.0507 24.7711" fill="#D2E5F1"/>
<path d="M29.4025 26.7009L26.9572 28.9305C26.9572 28.9305 26.7659 29.0755 26.5569 28.9846L27.0252 24.8432" fill="#B5CFE4"/>
</svg>
