<svg width="520" height="250" viewBox="0 0 520 250" fill="none" xmlns="http://www.w3.org/2000/svg">
<rect x="0.5" y="0.5" width="519" height="249" rx="19.5" fill="#093763"/>
<path d="M61.3174 78.92H58.1974V86H55.1254V69.2H58.1974V76.232H61.4134L66.2374 69.2H69.5494L63.8134 77.336L69.7654 86H66.2374L61.3174 78.92ZM77.0952 86.168C75.7992 86.168 74.6312 85.888 73.5912 85.328C72.5512 84.768 71.7352 83.992 71.1432 83C70.5672 81.992 70.2792 80.856 70.2792 79.592C70.2792 78.328 70.5672 77.2 71.1432 76.208C71.7352 75.216 72.5512 74.44 73.5912 73.88C74.6312 73.32 75.7992 73.04 77.0952 73.04C78.4072 73.04 79.5832 73.32 80.6232 73.88C81.6632 74.44 82.4712 75.216 83.0472 76.208C83.6392 77.2 83.9352 78.328 83.9352 79.592C83.9352 80.856 83.6392 81.992 83.0472 83C82.4712 83.992 81.6632 84.768 80.6232 85.328C79.5832 85.888 78.4072 86.168 77.0952 86.168ZM77.0952 83.6C78.1992 83.6 79.1112 83.232 79.8312 82.496C80.5512 81.76 80.9112 80.792 80.9112 79.592C80.9112 78.392 80.5512 77.424 79.8312 76.688C79.1112 75.952 78.1992 75.584 77.0952 75.584C75.9912 75.584 75.0792 75.952 74.3592 76.688C73.6552 77.424 73.3032 78.392 73.3032 79.592C73.3032 80.792 73.6552 81.76 74.3592 82.496C75.0792 83.232 75.9912 83.6 77.0952 83.6ZM94.0028 73.04C95.2508 73.04 96.3628 73.312 97.3388 73.856C98.3308 74.4 99.1068 75.168 99.6668 76.16C100.227 77.152 100.507 78.296 100.507 79.592C100.507 80.888 100.227 82.04 99.6668 83.048C99.1068 84.04 98.3308 84.808 97.3388 85.352C96.3628 85.896 95.2508 86.168 94.0028 86.168C92.2748 86.168 90.9068 85.592 89.8988 84.44V90.656H86.8988V73.184H89.7548V74.864C90.2508 74.256 90.8588 73.8 91.5788 73.496C92.3148 73.192 93.1228 73.04 94.0028 73.04ZM93.6668 83.6C94.7708 83.6 95.6748 83.232 96.3788 82.496C97.0988 81.76 97.4588 80.792 97.4588 79.592C97.4588 78.392 97.0988 77.424 96.3788 76.688C95.6748 75.952 94.7708 75.584 93.6668 75.584C92.9468 75.584 92.2988 75.752 91.7228 76.088C91.1468 76.408 90.6908 76.872 90.3548 77.48C90.0188 78.088 89.8508 78.792 89.8508 79.592C89.8508 80.392 90.0188 81.096 90.3548 81.704C90.6908 82.312 91.1468 82.784 91.7228 83.12C92.2988 83.44 92.9468 83.6 93.6668 83.6ZM109.205 86.168C107.909 86.168 106.741 85.888 105.701 85.328C104.661 84.768 103.845 83.992 103.253 83C102.677 81.992 102.389 80.856 102.389 79.592C102.389 78.328 102.677 77.2 103.253 76.208C103.845 75.216 104.661 74.44 105.701 73.88C106.741 73.32 107.909 73.04 109.205 73.04C110.517 73.04 111.693 73.32 112.733 73.88C113.773 74.44 114.581 75.216 115.157 76.208C115.749 77.2 116.045 78.328 116.045 79.592C116.045 80.856 115.749 81.992 115.157 83C114.581 83.992 113.773 84.768 112.733 85.328C111.693 85.888 110.517 86.168 109.205 86.168ZM109.205 83.6C110.309 83.6 111.221 83.232 111.941 82.496C112.661 81.76 113.021 80.792 113.021 79.592C113.021 78.392 112.661 77.424 111.941 76.688C111.221 75.952 110.309 75.584 109.205 75.584C108.101 75.584 107.189 75.952 106.469 76.688C105.765 77.424 105.413 78.392 105.413 79.592C105.413 80.792 105.765 81.76 106.469 82.496C107.189 83.232 108.101 83.6 109.205 83.6ZM128.691 75.728H124.203V86H121.203V75.728H116.691V73.184H128.691V75.728ZM136.196 80.864H133.868V86H130.868V73.184H133.868V78.368H136.268L140.06 73.184H143.276L138.62 79.352L143.588 86H140.06L136.196 80.864ZM150.994 86.168C149.698 86.168 148.53 85.888 147.49 85.328C146.45 84.768 145.634 83.992 145.042 83C144.466 81.992 144.178 80.856 144.178 79.592C144.178 78.328 144.466 77.2 145.042 76.208C145.634 75.216 146.45 74.44 147.49 73.88C148.53 73.32 149.698 73.04 150.994 73.04C152.306 73.04 153.482 73.32 154.522 73.88C155.562 74.44 156.37 75.216 156.946 76.208C157.538 77.2 157.834 78.328 157.834 79.592C157.834 80.856 157.538 81.992 156.946 83C156.37 83.992 155.562 84.768 154.522 85.328C153.482 85.888 152.306 86.168 150.994 86.168ZM150.994 83.6C152.098 83.6 153.01 83.232 153.73 82.496C154.45 81.76 154.81 80.792 154.81 79.592C154.81 78.392 154.45 77.424 153.73 76.688C153.01 75.952 152.098 75.584 150.994 75.584C149.89 75.584 148.978 75.952 148.258 76.688C147.554 77.424 147.202 78.392 147.202 79.592C147.202 80.792 147.554 81.76 148.258 82.496C148.978 83.232 149.89 83.6 150.994 83.6ZM172.797 79.664C172.797 79.872 172.781 80.168 172.749 80.552H162.693C162.869 81.496 163.325 82.248 164.061 82.808C164.813 83.352 165.741 83.624 166.845 83.624C168.253 83.624 169.413 83.16 170.325 82.232L171.933 84.08C171.357 84.768 170.629 85.288 169.749 85.64C168.869 85.992 167.877 86.168 166.773 86.168C165.365 86.168 164.125 85.888 163.053 85.328C161.981 84.768 161.149 83.992 160.557 83C159.981 81.992 159.693 80.856 159.693 79.592C159.693 78.344 159.973 77.224 160.533 76.232C161.109 75.224 161.901 74.44 162.909 73.88C163.917 73.32 165.053 73.04 166.317 73.04C167.565 73.04 168.677 73.32 169.653 73.88C170.645 74.424 171.413 75.2 171.957 76.208C172.517 77.2 172.797 78.352 172.797 79.664ZM166.317 75.44C165.357 75.44 164.541 75.728 163.869 76.304C163.213 76.864 162.813 77.616 162.669 78.56H169.941C169.813 77.632 169.421 76.88 168.765 76.304C168.109 75.728 167.293 75.44 166.317 75.44ZM191.999 79.328C193.583 79.808 194.375 80.832 194.375 82.4C194.375 83.552 193.943 84.44 193.079 85.064C192.215 85.688 190.935 86 189.239 86H182.711V73.184H188.975C190.543 73.184 191.767 73.472 192.647 74.048C193.527 74.624 193.967 75.44 193.967 76.496C193.967 77.152 193.791 77.72 193.439 78.2C193.103 78.68 192.623 79.056 191.999 79.328ZM185.567 78.536H188.711C190.263 78.536 191.039 78 191.039 76.928C191.039 75.888 190.263 75.368 188.711 75.368H185.567V78.536ZM188.999 83.816C190.647 83.816 191.471 83.28 191.471 82.208C191.471 81.648 191.279 81.232 190.895 80.96C190.511 80.672 189.911 80.528 189.095 80.528H185.567V83.816H188.999ZM197.571 73.184H200.571V81.632L207.651 73.184H210.387V86H207.387V77.552L200.331 86H197.571V73.184ZM228.102 83.456V88.856H225.294V86H215.406V88.856H212.622V83.456H213.222C214.038 83.424 214.59 82.904 214.878 81.896C215.182 80.872 215.382 79.432 215.478 77.576L215.646 73.184H226.206V83.456H228.102ZM218.214 77.792C218.15 79.264 218.03 80.464 217.854 81.392C217.678 82.32 217.358 83.008 216.894 83.456H223.206V75.728H218.286L218.214 77.792ZM242.782 79.664C242.782 79.872 242.766 80.168 242.734 80.552H232.678C232.854 81.496 233.31 82.248 234.046 82.808C234.798 83.352 235.726 83.624 236.83 83.624C238.238 83.624 239.398 83.16 240.31 82.232L241.918 84.08C241.342 84.768 240.614 85.288 239.734 85.64C238.854 85.992 237.862 86.168 236.758 86.168C235.35 86.168 234.11 85.888 233.038 85.328C231.966 84.768 231.134 83.992 230.542 83C229.966 81.992 229.678 80.856 229.678 79.592C229.678 78.344 229.958 77.224 230.518 76.232C231.094 75.224 231.886 74.44 232.894 73.88C233.902 73.32 235.038 73.04 236.302 73.04C237.55 73.04 238.662 73.32 239.638 73.88C240.63 74.424 241.398 75.2 241.942 76.208C242.502 77.2 242.782 78.352 242.782 79.664ZM236.302 75.44C235.342 75.44 234.526 75.728 233.854 76.304C233.198 76.864 232.798 77.616 232.654 78.56H239.926C239.798 77.632 239.406 76.88 238.75 76.304C238.094 75.728 237.278 75.44 236.302 75.44ZM251.775 86.168C250.479 86.168 249.311 85.888 248.271 85.328C247.231 84.768 246.415 83.992 245.823 83C245.247 81.992 244.959 80.856 244.959 79.592C244.959 78.328 245.247 77.2 245.823 76.208C246.415 75.216 247.231 74.44 248.271 73.88C249.311 73.32 250.479 73.04 251.775 73.04C253.087 73.04 254.263 73.32 255.303 73.88C256.343 74.44 257.151 75.216 257.727 76.208C258.319 77.2 258.615 78.328 258.615 79.592C258.615 80.856 258.319 81.992 257.727 83C257.151 83.992 256.343 84.768 255.303 85.328C254.263 85.888 253.087 86.168 251.775 86.168ZM251.775 83.6C252.879 83.6 253.791 83.232 254.511 82.496C255.231 81.76 255.591 80.792 255.591 79.592C255.591 78.392 255.231 77.424 254.511 76.688C253.791 75.952 252.879 75.584 251.775 75.584C250.671 75.584 249.759 75.952 249.039 76.688C248.335 77.424 247.983 78.392 247.983 79.592C247.983 80.792 248.335 81.76 249.039 82.496C249.759 83.232 250.671 83.6 251.775 83.6ZM280.499 73.184V86H277.523V75.728H271.211V86H268.211V73.184H280.499ZM291.651 73.04C292.899 73.04 294.011 73.312 294.987 73.856C295.979 74.4 296.755 75.168 297.315 76.16C297.875 77.152 298.155 78.296 298.155 79.592C298.155 80.888 297.875 82.04 297.315 83.048C296.755 84.04 295.979 84.808 294.987 85.352C294.011 85.896 292.899 86.168 291.651 86.168C289.923 86.168 288.555 85.592 287.547 84.44V90.656H284.547V73.184H287.403V74.864C287.899 74.256 288.507 73.8 289.227 73.496C289.963 73.192 290.771 73.04 291.651 73.04ZM291.315 83.6C292.419 83.6 293.323 83.232 294.027 82.496C294.747 81.76 295.107 80.792 295.107 79.592C295.107 78.392 294.747 77.424 294.027 76.688C293.323 75.952 292.419 75.584 291.315 75.584C290.595 75.584 289.947 75.752 289.371 76.088C288.795 76.408 288.339 76.872 288.003 77.48C287.667 78.088 287.499 78.792 287.499 79.592C287.499 80.392 287.667 81.096 288.003 81.704C288.339 82.312 288.795 82.784 289.371 83.12C289.947 83.44 290.595 83.6 291.315 83.6ZM306.853 86.168C305.557 86.168 304.389 85.888 303.349 85.328C302.309 84.768 301.493 83.992 300.901 83C300.325 81.992 300.037 80.856 300.037 79.592C300.037 78.328 300.325 77.2 300.901 76.208C301.493 75.216 302.309 74.44 303.349 73.88C304.389 73.32 305.557 73.04 306.853 73.04C308.165 73.04 309.341 73.32 310.381 73.88C311.421 74.44 312.229 75.216 312.805 76.208C313.397 77.2 313.693 78.328 313.693 79.592C313.693 80.856 313.397 81.992 312.805 83C312.229 83.992 311.421 84.768 310.381 85.328C309.341 85.888 308.165 86.168 306.853 86.168ZM306.853 83.6C307.957 83.6 308.869 83.232 309.589 82.496C310.309 81.76 310.669 80.792 310.669 79.592C310.669 78.392 310.309 77.424 309.589 76.688C308.869 75.952 307.957 75.584 306.853 75.584C305.749 75.584 304.837 75.952 304.117 76.688C303.413 77.424 303.061 78.392 303.061 79.592C303.061 80.792 303.413 81.76 304.117 82.496C304.837 83.232 305.749 83.6 306.853 83.6ZM332.577 79.328C334.161 79.808 334.953 80.832 334.953 82.4C334.953 83.552 334.521 84.44 333.657 85.064C332.793 85.688 331.513 86 329.817 86H323.289V73.184H329.553C331.121 73.184 332.345 73.472 333.225 74.048C334.105 74.624 334.545 75.44 334.545 76.496C334.545 77.152 334.369 77.72 334.017 78.2C333.681 78.68 333.201 79.056 332.577 79.328ZM326.145 78.536H329.289C330.841 78.536 331.617 78 331.617 76.928C331.617 75.888 330.841 75.368 329.289 75.368H326.145V78.536ZM329.577 83.816C331.225 83.816 332.049 83.28 332.049 82.208C332.049 81.648 331.857 81.232 331.473 80.96C331.089 80.672 330.489 80.528 329.673 80.528H326.145V83.816H329.577ZM350.149 79.664C350.149 79.872 350.133 80.168 350.101 80.552H340.045C340.221 81.496 340.677 82.248 341.413 82.808C342.165 83.352 343.093 83.624 344.197 83.624C345.605 83.624 346.765 83.16 347.677 82.232L349.285 84.08C348.709 84.768 347.981 85.288 347.101 85.64C346.221 85.992 345.229 86.168 344.125 86.168C342.717 86.168 341.477 85.888 340.405 85.328C339.333 84.768 338.501 83.992 337.909 83C337.333 81.992 337.045 80.856 337.045 79.592C337.045 78.344 337.325 77.224 337.885 76.232C338.461 75.224 339.253 74.44 340.261 73.88C341.269 73.32 342.405 73.04 343.669 73.04C344.917 73.04 346.029 73.32 347.005 73.88C347.997 74.424 348.765 75.2 349.309 76.208C349.869 77.2 350.149 78.352 350.149 79.664ZM343.669 75.44C342.709 75.44 341.893 75.728 341.221 76.304C340.565 76.864 340.165 77.616 340.021 78.56H347.293C347.165 77.632 346.773 76.88 346.117 76.304C345.461 75.728 344.645 75.44 343.669 75.44ZM360.366 73.808C361.582 73.808 362.654 74.072 363.582 74.6C364.51 75.112 365.23 75.832 365.742 76.76C366.27 77.688 366.534 78.752 366.534 79.952C366.534 81.184 366.246 82.28 365.67 83.24C365.094 84.184 364.286 84.92 363.246 85.448C362.206 85.976 361.022 86.24 359.694 86.24C357.47 86.24 355.75 85.504 354.534 84.032C353.318 82.56 352.71 80.44 352.71 77.672C352.71 75.096 353.262 73.056 354.366 71.552C355.47 70.048 357.158 69.056 359.43 68.576L365.382 67.304L365.814 69.992L360.414 71.096C358.862 71.416 357.702 71.96 356.934 72.728C356.166 73.496 355.718 74.576 355.59 75.968C356.166 75.28 356.862 74.752 357.678 74.384C358.494 74 359.39 73.808 360.366 73.808ZM359.766 83.816C360.87 83.816 361.758 83.464 362.43 82.76C363.118 82.04 363.462 81.128 363.462 80.024C363.462 78.92 363.118 78.032 362.43 77.36C361.758 76.688 360.87 76.352 359.766 76.352C358.646 76.352 357.742 76.688 357.054 77.36C356.366 78.032 356.022 78.92 356.022 80.024C356.022 81.144 356.366 82.056 357.054 82.76C357.758 83.464 358.662 83.816 359.766 83.816ZM381.903 86.168C380.575 86.168 379.383 85.888 378.327 85.328C377.271 84.768 376.447 83.992 375.855 83C375.263 81.992 374.967 80.856 374.967 79.592C374.967 78.328 375.263 77.2 375.855 76.208C376.447 75.216 377.263 74.44 378.303 73.88C379.359 73.32 380.559 73.04 381.903 73.04C383.167 73.04 384.271 73.296 385.215 73.808C386.175 74.32 386.895 75.056 387.375 76.016L385.071 77.36C384.703 76.768 384.239 76.328 383.679 76.04C383.135 75.736 382.535 75.584 381.879 75.584C380.759 75.584 379.831 75.952 379.095 76.688C378.359 77.408 377.991 78.376 377.991 79.592C377.991 80.808 378.351 81.784 379.071 82.52C379.807 83.24 380.743 83.6 381.879 83.6C382.535 83.6 383.135 83.456 383.679 83.168C384.239 82.864 384.703 82.416 385.071 81.824L387.375 83.168C386.879 84.128 386.151 84.872 385.191 85.4C384.247 85.912 383.151 86.168 381.903 86.168ZM400.051 75.728H395.563V86H392.563V75.728H388.051V73.184H400.051V75.728ZM414.417 73.184L408.417 87.032C407.857 88.424 407.177 89.4 406.377 89.96C405.577 90.536 404.609 90.824 403.473 90.824C402.833 90.824 402.201 90.72 401.577 90.512C400.953 90.304 400.441 90.016 400.041 89.648L401.241 87.44C401.529 87.712 401.865 87.928 402.249 88.088C402.649 88.248 403.049 88.328 403.449 88.328C403.977 88.328 404.409 88.192 404.745 87.92C405.097 87.648 405.417 87.192 405.705 86.552L405.921 86.048L400.329 73.184H403.449L407.481 82.664L411.537 73.184H414.417ZM429.384 83.456V88.856H426.576V86H416.688V88.856H413.904V83.456H414.504C415.32 83.424 415.872 82.904 416.16 81.896C416.464 80.872 416.664 79.432 416.76 77.576L416.928 73.184H427.488V83.456H429.384ZM419.496 77.792C419.432 79.264 419.312 80.464 419.136 81.392C418.96 82.32 418.64 83.008 418.176 83.456H424.488V75.728H419.568L419.496 77.792ZM432.063 73.184H435.063V81.632L442.143 73.184H444.879V86H441.879V77.552L434.823 86H432.063V73.184ZM460.626 73.04C461.906 73.04 463.05 73.32 464.058 73.88C465.066 74.424 465.858 75.2 466.434 76.208C467.01 77.2 467.298 78.328 467.298 79.592C467.298 80.856 467.01 81.992 466.434 83C465.858 83.992 465.066 84.768 464.058 85.328C463.05 85.888 461.906 86.168 460.626 86.168C459.506 86.168 458.482 85.952 457.554 85.52C456.626 85.072 455.858 84.448 455.25 83.648C454.642 82.832 454.25 81.904 454.074 80.864H451.914V86H448.914V73.184H451.914V78.152H454.122C454.314 77.144 454.714 76.256 455.322 75.488C455.93 74.704 456.69 74.104 457.602 73.688C458.514 73.256 459.522 73.04 460.626 73.04ZM460.626 83.624C461.33 83.624 461.962 83.464 462.522 83.144C463.082 82.808 463.522 82.336 463.842 81.728C464.162 81.104 464.322 80.392 464.322 79.592C464.322 78.376 463.97 77.408 463.266 76.688C462.578 75.952 461.698 75.584 460.626 75.584C459.554 75.584 458.674 75.952 457.986 76.688C457.298 77.408 456.954 78.376 456.954 79.592C456.954 80.808 457.298 81.784 457.986 82.52C458.69 83.256 459.57 83.624 460.626 83.624Z" fill="white"/>
<path d="M251.667 193.75L276.667 175L251.667 156.25V193.75ZM260 133.333C237 133.333 218.333 152 218.333 175C218.333 198 237 216.667 260 216.667C283 216.667 301.667 198 301.667 175C301.667 152 283 133.333 260 133.333ZM260 208.333C241.625 208.333 226.667 193.375 226.667 175C226.667 156.625 241.625 141.667 260 141.667C278.375 141.667 293.334 156.625 293.334 175C293.334 193.375 278.375 208.333 260 208.333Z" fill="white"/>
<rect x="0.5" y="0.5" width="519" height="249" rx="19.5" stroke="#E1EDF8"/>
</svg>
