<svg width="36" height="36" viewBox="0 0 36 36" fill="none" xmlns="http://www.w3.org/2000/svg">
<path d="M23.526 0H12.474C2.388 0 0 2.388 0 12.474V23.526C0 33.612 2.388 36 12.474 36H23.526C33.612 36 36 33.612 36 23.526V12.474C36 2.388 33.5865 0 23.526 0ZM29.064 25.6845H26.448C25.458 25.6845 25.152 24.897 23.373 23.094C21.8235 21.594 21.138 21.3915 20.757 21.3915C20.223 21.3915 20.07 21.5445 20.07 22.281V24.6435C20.07 25.2795 19.8675 25.6605 18.1905 25.6605C15.4215 25.6605 12.3465 23.9835 10.188 20.8575C6.936 16.2855 6.045 12.855 6.045 12.144C6.045 11.763 6.198 11.4075 6.9345 11.4075H9.5505C10.2105 11.4075 10.4655 11.712 10.7205 12.423C12.015 16.158 14.175 19.4355 15.0645 19.4355C15.3945 19.4355 15.5475 19.2825 15.5475 18.4455V14.5815C15.4455 12.8025 14.505 12.651 14.505 12.0165C14.505 11.7105 14.76 11.406 15.165 11.406H19.281C19.8405 11.406 20.043 11.7105 20.043 12.3705V17.58C20.043 18.138 20.298 18.342 20.4495 18.342C20.7795 18.342 21.06 18.138 21.669 17.529C23.55 15.42 24.8955 12.168 24.8955 12.168C25.074 11.787 25.3785 11.4315 26.04 11.4315H28.656C29.4435 11.4315 29.622 11.8365 29.4435 12.396C29.1135 13.9215 25.9125 18.4425 25.9125 18.4425C25.6335 18.9 25.5315 19.1025 25.9125 19.6125C26.1915 19.9935 27.1065 20.781 27.717 21.492C28.8345 22.7625 29.697 23.829 29.9265 24.567C30.1815 25.302 29.799 25.683 29.0625 25.683L29.064 25.6845Z" fill="#5B81B4"/>
</svg>
