<svg width="203" height="44" viewBox="0 0 203 44" fill="none" xmlns="http://www.w3.org/2000/svg">
<rect width="203" height="44" rx="6" fill="#5B81B4"/>
<path d="M74.3322 17.6L70.6962 26H68.7762L65.1522 17.6H67.2522L69.8082 23.6L72.4002 17.6H74.3322ZM78.6935 22.7L77.5655 23.876V26H75.6335V17.6H77.5655V21.524L81.2855 17.6H83.4455L79.9655 21.344L83.6495 26H81.3815L78.6935 22.7ZM87.7868 26.096C87.1068 26.096 86.4948 25.956 85.9508 25.676C85.4148 25.388 84.9948 24.992 84.6908 24.488C84.3868 23.984 84.2348 23.412 84.2348 22.772C84.2348 22.132 84.3868 21.56 84.6908 21.056C84.9948 20.552 85.4148 20.16 85.9508 19.88C86.4948 19.592 87.1068 19.448 87.7868 19.448C88.4668 19.448 89.0748 19.592 89.6108 19.88C90.1468 20.16 90.5668 20.552 90.8708 21.056C91.1748 21.56 91.3268 22.132 91.3268 22.772C91.3268 23.412 91.1748 23.984 90.8708 24.488C90.5668 24.992 90.1468 25.388 89.6108 25.676C89.0748 25.956 88.4668 26.096 87.7868 26.096ZM87.7868 24.56C88.2668 24.56 88.6588 24.4 88.9628 24.08C89.2748 23.752 89.4308 23.316 89.4308 22.772C89.4308 22.228 89.2748 21.796 88.9628 21.476C88.6588 21.148 88.2668 20.984 87.7868 20.984C87.3068 20.984 86.9108 21.148 86.5988 21.476C86.2868 21.796 86.1308 22.228 86.1308 22.772C86.1308 23.316 86.2868 23.752 86.5988 24.08C86.9108 24.4 87.3068 24.56 87.7868 24.56ZM97.1021 19.448C97.9021 19.448 98.5461 19.688 99.0341 20.168C99.5301 20.648 99.7781 21.36 99.7781 22.304V26H97.9061V22.592C97.9061 22.08 97.7941 21.7 97.5701 21.452C97.3461 21.196 97.0221 21.068 96.5981 21.068C96.1261 21.068 95.7501 21.216 95.4701 21.512C95.1901 21.8 95.0501 22.232 95.0501 22.808V26H93.1781V19.544H94.9661V20.3C95.2141 20.028 95.5221 19.82 95.8901 19.676C96.2581 19.524 96.6621 19.448 97.1021 19.448ZM106.239 25.688C106.055 25.824 105.827 25.928 105.555 26C105.291 26.064 105.011 26.096 104.715 26.096C103.947 26.096 103.351 25.9 102.927 25.508C102.511 25.116 102.303 24.54 102.303 23.78V21.128H101.307V19.688H102.303V18.116H104.175V19.688H105.783V21.128H104.175V23.756C104.175 24.028 104.243 24.24 104.379 24.392C104.523 24.536 104.723 24.608 104.979 24.608C105.275 24.608 105.527 24.528 105.735 24.368L106.239 25.688ZM110.494 19.448C111.494 19.448 112.262 19.688 112.798 20.168C113.334 20.64 113.602 21.356 113.602 22.316V26H111.85V25.196C111.498 25.796 110.842 26.096 109.882 26.096C109.386 26.096 108.954 26.012 108.586 25.844C108.226 25.676 107.95 25.444 107.758 25.148C107.566 24.852 107.47 24.516 107.47 24.14C107.47 23.54 107.694 23.068 108.142 22.724C108.598 22.38 109.298 22.208 110.242 22.208H111.73C111.73 21.8 111.606 21.488 111.358 21.272C111.11 21.048 110.738 20.936 110.242 20.936C109.898 20.936 109.558 20.992 109.222 21.104C108.894 21.208 108.614 21.352 108.382 21.536L107.71 20.228C108.062 19.98 108.482 19.788 108.97 19.652C109.466 19.516 109.974 19.448 110.494 19.448ZM110.35 24.836C110.67 24.836 110.954 24.764 111.202 24.62C111.45 24.468 111.626 24.248 111.73 23.96V23.3H110.446C109.678 23.3 109.294 23.552 109.294 24.056C109.294 24.296 109.386 24.488 109.57 24.632C109.762 24.768 110.022 24.836 110.35 24.836ZM118.668 23.468L117.768 24.356V26H115.896V17.096H117.768V22.136L120.504 19.544H122.736L120.048 22.28L122.976 26H120.708L118.668 23.468ZM128.582 25.688C128.398 25.824 128.17 25.928 127.898 26C127.634 26.064 127.354 26.096 127.058 26.096C126.29 26.096 125.694 25.9 125.27 25.508C124.854 25.116 124.646 24.54 124.646 23.78V21.128H123.65V19.688H124.646V18.116H126.518V19.688H128.126V21.128H126.518V23.756C126.518 24.028 126.586 24.24 126.722 24.392C126.866 24.536 127.066 24.608 127.322 24.608C127.618 24.608 127.87 24.528 128.078 24.368L128.582 25.688ZM136.358 22.796C136.358 22.82 136.346 22.988 136.322 23.3H131.438C131.526 23.7 131.734 24.016 132.062 24.248C132.39 24.48 132.798 24.596 133.286 24.596C133.622 24.596 133.918 24.548 134.174 24.452C134.438 24.348 134.682 24.188 134.906 23.972L135.902 25.052C135.294 25.748 134.406 26.096 133.238 26.096C132.51 26.096 131.866 25.956 131.306 25.676C130.746 25.388 130.314 24.992 130.01 24.488C129.706 23.984 129.554 23.412 129.554 22.772C129.554 22.14 129.702 21.572 129.998 21.068C130.302 20.556 130.714 20.16 131.234 19.88C131.762 19.592 132.35 19.448 132.998 19.448C133.63 19.448 134.202 19.584 134.714 19.856C135.226 20.128 135.626 20.52 135.914 21.032C136.21 21.536 136.358 22.124 136.358 22.796ZM133.01 20.864C132.586 20.864 132.23 20.984 131.942 21.224C131.654 21.464 131.478 21.792 131.414 22.208H134.594C134.53 21.8 134.354 21.476 134.066 21.236C133.778 20.988 133.426 20.864 133.01 20.864Z" fill="white"/>
<rect x="17.5" y="9.5" width="25" height="25" fill="white"/>
<path d="M34.605 7H25.395C16.99 7 15 8.99 15 17.395V26.605C15 35.01 16.99 37 25.395 37H34.605C43.01 37 45 35.01 45 26.605V17.395C45 8.99 42.9888 7 34.605 7ZM39.22 28.4037H37.04C36.215 28.4037 35.96 27.7475 34.4775 26.245C33.1862 24.995 32.615 24.8263 32.2975 24.8263C31.8525 24.8263 31.725 24.9538 31.725 25.5675V27.5363C31.725 28.0663 31.5562 28.3838 30.1587 28.3838C27.8512 28.3838 25.2887 26.9862 23.49 24.3813C20.78 20.5712 20.0375 17.7125 20.0375 17.12C20.0375 16.8025 20.165 16.5063 20.7788 16.5063H22.9588C23.5087 16.5063 23.7212 16.76 23.9338 17.3525C25.0125 20.465 26.8125 23.1962 27.5538 23.1962C27.8288 23.1962 27.9562 23.0688 27.9562 22.3713V19.1512C27.8713 17.6687 27.0875 17.5425 27.0875 17.0138C27.0875 16.7587 27.3 16.505 27.6375 16.505H31.0675C31.5338 16.505 31.7025 16.7587 31.7025 17.3088V21.65C31.7025 22.115 31.915 22.285 32.0413 22.285C32.3162 22.285 32.55 22.115 33.0575 21.6075C34.625 19.85 35.7463 17.14 35.7463 17.14C35.895 16.8225 36.1488 16.5262 36.7 16.5262H38.88C39.5362 16.5262 39.685 16.8637 39.5362 17.33C39.2612 18.6012 36.5938 22.3687 36.5938 22.3687C36.3612 22.75 36.2762 22.9187 36.5938 23.3438C36.8263 23.6612 37.5888 24.3175 38.0975 24.91C39.0288 25.9688 39.7475 26.8575 39.9388 27.4725C40.1513 28.085 39.8325 28.4025 39.2188 28.4025L39.22 28.4037Z" fill="#5B81B4"/>
</svg>
