<svg width="203" height="44" viewBox="0 0 203 44" fill="none" xmlns="http://www.w3.org/2000/svg">
<rect width="203" height="44" rx="6" fill="#00E676"/>
<path d="M79.9787 17.6L77.2307 26H75.1427L73.2947 20.312L71.3867 26H69.3107L66.5507 17.6H68.5667L70.4627 23.504L72.4427 17.6H74.2427L76.1627 23.552L78.1187 17.6H79.9787ZM85.6318 19.448C86.4318 19.448 87.0758 19.688 87.5638 20.168C88.0598 20.648 88.3078 21.36 88.3078 22.304V26H86.4358V22.592C86.4358 22.08 86.3238 21.7 86.0998 21.452C85.8758 21.196 85.5518 21.068 85.1278 21.068C84.6558 21.068 84.2798 21.216 83.9998 21.512C83.7198 21.8 83.5798 22.232 83.5798 22.808V26H81.7078V17.096H83.5798V20.216C83.8278 19.968 84.1278 19.78 84.4798 19.652C84.8318 19.516 85.2158 19.448 85.6318 19.448ZM93.2086 19.448C94.2086 19.448 94.9766 19.688 95.5126 20.168C96.0486 20.64 96.3166 21.356 96.3166 22.316V26H94.5646V25.196C94.2126 25.796 93.5566 26.096 92.5966 26.096C92.1006 26.096 91.6686 26.012 91.3006 25.844C90.9406 25.676 90.6646 25.444 90.4726 25.148C90.2806 24.852 90.1846 24.516 90.1846 24.14C90.1846 23.54 90.4086 23.068 90.8566 22.724C91.3126 22.38 92.0126 22.208 92.9566 22.208H94.4446C94.4446 21.8 94.3206 21.488 94.0726 21.272C93.8246 21.048 93.4526 20.936 92.9566 20.936C92.6126 20.936 92.2726 20.992 91.9366 21.104C91.6086 21.208 91.3286 21.352 91.0966 21.536L90.4246 20.228C90.7766 19.98 91.1966 19.788 91.6846 19.652C92.1806 19.516 92.6886 19.448 93.2086 19.448ZM93.0646 24.836C93.3846 24.836 93.6686 24.764 93.9166 24.62C94.1646 24.468 94.3406 24.248 94.4446 23.96V23.3H93.1606C92.3926 23.3 92.0086 23.552 92.0086 24.056C92.0086 24.296 92.1006 24.488 92.2846 24.632C92.4766 24.768 92.7366 24.836 93.0646 24.836ZM102.775 25.688C102.591 25.824 102.363 25.928 102.091 26C101.827 26.064 101.547 26.096 101.251 26.096C100.483 26.096 99.8869 25.9 99.4629 25.508C99.0469 25.116 98.8389 24.54 98.8389 23.78V21.128H97.8429V19.688H98.8389V18.116H100.711V19.688H102.319V21.128H100.711V23.756C100.711 24.028 100.779 24.24 100.915 24.392C101.059 24.536 101.259 24.608 101.515 24.608C101.811 24.608 102.063 24.528 102.271 24.368L102.775 25.688ZM106.598 26.096C106.062 26.096 105.538 26.032 105.026 25.904C104.514 25.768 104.106 25.6 103.802 25.4L104.426 24.056C104.714 24.24 105.062 24.392 105.47 24.512C105.878 24.624 106.278 24.68 106.67 24.68C107.462 24.68 107.858 24.484 107.858 24.092C107.858 23.908 107.75 23.776 107.534 23.696C107.318 23.616 106.986 23.548 106.538 23.492C106.01 23.412 105.574 23.32 105.23 23.216C104.886 23.112 104.586 22.928 104.33 22.664C104.082 22.4 103.958 22.024 103.958 21.536C103.958 21.128 104.074 20.768 104.306 20.456C104.546 20.136 104.89 19.888 105.338 19.712C105.794 19.536 106.33 19.448 106.946 19.448C107.402 19.448 107.854 19.5 108.302 19.604C108.758 19.7 109.134 19.836 109.43 20.012L108.806 21.344C108.238 21.024 107.618 20.864 106.946 20.864C106.546 20.864 106.246 20.92 106.046 21.032C105.846 21.144 105.746 21.288 105.746 21.464C105.746 21.664 105.854 21.804 106.07 21.884C106.286 21.964 106.63 22.04 107.102 22.112C107.63 22.2 108.062 22.296 108.398 22.4C108.734 22.496 109.026 22.676 109.274 22.94C109.522 23.204 109.646 23.572 109.646 24.044C109.646 24.444 109.526 24.8 109.286 25.112C109.046 25.424 108.694 25.668 108.23 25.844C107.774 26.012 107.23 26.096 106.598 26.096ZM114.005 19.448C115.005 19.448 115.773 19.688 116.309 20.168C116.845 20.64 117.113 21.356 117.113 22.316V26H115.361V25.196C115.009 25.796 114.353 26.096 113.393 26.096C112.897 26.096 112.465 26.012 112.097 25.844C111.737 25.676 111.461 25.444 111.269 25.148C111.077 24.852 110.981 24.516 110.981 24.14C110.981 23.54 111.205 23.068 111.653 22.724C112.109 22.38 112.809 22.208 113.753 22.208H115.241C115.241 21.8 115.117 21.488 114.869 21.272C114.621 21.048 114.249 20.936 113.753 20.936C113.409 20.936 113.069 20.992 112.733 21.104C112.405 21.208 112.125 21.352 111.893 21.536L111.221 20.228C111.573 19.98 111.993 19.788 112.481 19.652C112.977 19.516 113.485 19.448 114.005 19.448ZM113.861 24.836C114.181 24.836 114.465 24.764 114.713 24.62C114.961 24.468 115.137 24.248 115.241 23.96V23.3H113.957C113.189 23.3 112.805 23.552 112.805 24.056C112.805 24.296 112.897 24.488 113.081 24.632C113.273 24.768 113.533 24.836 113.861 24.836ZM123.223 19.448C123.823 19.448 124.367 19.588 124.855 19.868C125.351 20.14 125.739 20.528 126.019 21.032C126.299 21.528 126.439 22.108 126.439 22.772C126.439 23.436 126.299 24.02 126.019 24.524C125.739 25.02 125.351 25.408 124.855 25.688C124.367 25.96 123.823 26.096 123.223 26.096C122.399 26.096 121.751 25.836 121.279 25.316V28.328H119.407V19.544H121.195V20.288C121.659 19.728 122.335 19.448 123.223 19.448ZM122.899 24.56C123.379 24.56 123.771 24.4 124.075 24.08C124.387 23.752 124.543 23.316 124.543 22.772C124.543 22.228 124.387 21.796 124.075 21.476C123.771 21.148 123.379 20.984 122.899 20.984C122.419 20.984 122.023 21.148 121.711 21.476C121.407 21.796 121.255 22.228 121.255 22.772C121.255 23.316 121.407 23.752 121.711 24.08C122.023 24.4 122.419 24.56 122.899 24.56ZM132.108 19.448C132.708 19.448 133.252 19.588 133.74 19.868C134.236 20.14 134.624 20.528 134.904 21.032C135.184 21.528 135.324 22.108 135.324 22.772C135.324 23.436 135.184 24.02 134.904 24.524C134.624 25.02 134.236 25.408 133.74 25.688C133.252 25.96 132.708 26.096 132.108 26.096C131.284 26.096 130.636 25.836 130.164 25.316V28.328H128.292V19.544H130.08V20.288C130.544 19.728 131.22 19.448 132.108 19.448ZM131.784 24.56C132.264 24.56 132.656 24.4 132.96 24.08C133.272 23.752 133.428 23.316 133.428 22.772C133.428 22.228 133.272 21.796 132.96 21.476C132.656 21.148 132.264 20.984 131.784 20.984C131.304 20.984 130.908 21.148 130.596 21.476C130.292 21.796 130.14 22.228 130.14 22.772C130.14 23.316 130.292 23.752 130.596 24.08C130.908 24.4 131.304 24.56 131.784 24.56Z" fill="white"/>
<g clip-path="url(#clip0)">
<path d="M26.6077 30.6624L27.0164 30.8668C28.7195 31.8886 30.6268 32.3655 32.5342 32.3655C38.5289 32.3655 43.4335 27.4608 43.4335 21.4662C43.4335 18.6051 42.2754 15.8121 40.2319 13.7685C38.1882 11.7248 35.4633 10.5668 32.5342 10.5668C26.5396 10.5668 21.6348 15.4715 21.703 21.5343C21.703 23.5779 22.3161 25.5535 23.3378 27.2564L23.6103 27.6652L22.5205 31.6843L26.6077 30.6624Z" fill="#00E676"/>
<path d="M41.3899 12.6785C39.0738 10.2943 35.8722 9 32.6023 9C25.6541 9 20.0682 14.654 20.1362 21.5342C20.1362 23.7141 20.7493 25.8259 21.7712 27.7332L20 34.2047L26.6077 32.5017C28.447 33.5235 30.4905 34.0004 32.5343 34.0004C39.4145 34.0004 45.0004 28.3463 45.0004 21.4662C45.0004 18.1282 43.7061 14.9946 41.39 12.6785H41.3899ZM32.6023 31.8887C30.7631 31.8887 28.9238 31.4119 27.357 30.4582L26.9483 30.2538L22.9974 31.2756L24.0191 27.3928L23.7467 26.984C20.7493 22.1475 22.1799 15.7439 27.0846 12.7466C31.9893 9.74932 38.3245 11.1799 41.3219 16.0846C44.3191 20.9893 42.8886 27.3245 37.984 30.3219C36.4171 31.3437 34.5098 31.8886 32.6023 31.8886V31.8887ZM38.597 24.3273L37.8477 23.9867C37.8477 23.9867 36.7578 23.5099 36.0766 23.1692C36.0084 23.1692 35.9403 23.1011 35.8722 23.1011C35.6678 23.1011 35.5315 23.1692 35.3953 23.2374C35.3953 23.2374 35.3272 23.3055 34.3735 24.3954C34.3054 24.5316 34.1691 24.5998 34.0329 24.5998H33.9647C33.8967 24.5998 33.7604 24.5316 33.6923 24.4636L33.3517 24.3273C32.6023 23.9867 31.9212 23.5779 31.3762 23.033C31.2399 22.8968 31.0355 22.7605 30.8993 22.6243C30.4225 22.1475 29.9456 21.6024 29.6051 20.9894L29.5369 20.8531C29.4688 20.785 29.4688 20.7169 29.4007 20.5807C29.4007 20.4444 29.4007 20.3082 29.4688 20.24C29.4688 20.24 29.7413 19.8994 29.9456 19.6951C30.0819 19.5588 30.15 19.3545 30.2862 19.2183C30.4225 19.0139 30.4906 18.7414 30.4225 18.537C30.3544 18.1964 29.5369 16.3571 29.3326 15.9484C29.1963 15.744 29.0602 15.676 28.8558 15.6078H28.1064C27.9701 15.6078 27.834 15.676 27.6977 15.676L27.6295 15.744C27.4933 15.8122 27.357 15.9484 27.2208 16.0165C27.0846 16.1528 27.0164 16.289 26.8802 16.4253C26.4033 17.0384 26.1309 17.7877 26.1309 18.537C26.1309 19.0819 26.2671 19.627 26.4715 20.1038L26.5396 20.3082C27.1527 21.6024 27.9701 22.7605 29.0602 23.7823L29.3326 24.0548C29.5369 24.2592 29.7413 24.3954 29.8775 24.5997C31.3081 25.826 32.943 26.7115 34.7822 27.1884C34.9866 27.2564 35.2591 27.2564 35.4635 27.3246H36.1446C36.4853 27.3246 36.8939 27.1884 37.1665 27.0521C37.3708 26.9159 37.507 26.9159 37.6433 26.7797L37.7796 26.6434C37.9158 26.5071 38.0521 26.4391 38.1883 26.3028C38.3245 26.1666 38.4607 26.0304 38.5289 25.894C38.6651 25.6216 38.7332 25.281 38.8014 24.9404V24.4636C38.8014 24.4636 38.7332 24.3954 38.597 24.3273Z" fill="white"/>
</g>
<defs>
<clipPath id="clip0">
<rect width="25" height="25.293" fill="white" transform="translate(20 9)"/>
</clipPath>
</defs>
</svg>
