<?xml version="1.0" standalone="no"?>
<!DOCTYPE svg PUBLIC "-//W3C//DTD SVG 20010904//EN"
 "http://www.w3.org/TR/2001/REC-SVG-20010904/DTD/svg10.dtd">
<svg version="1.0" xmlns="http://www.w3.org/2000/svg"
 width="256.000000pt" height="256.000000pt" viewBox="0 0 256.000000 256.000000"
 preserveAspectRatio="xMidYMid meet">
<metadata>
Created by potrace 1.14, written by Peter Selinger 2001-2017
</metadata>
<g transform="translate(0.000000,256.000000) scale(0.100000,-0.100000)"
fill="#000000" stroke="none">
<path d="M850 1703 c0 -518 0 -527 -21 -571 -27 -55 -72 -77 -138 -68 -70 10
-108 53 -120 135 l-6 46 -178 3 -177 2 0 -33 c0 -65 22 -153 56 -223 58 -123
171 -208 319 -239 89 -19 181 -19 270 0 103 22 165 56 235 131 34 37 63 64 64
63 2 -2 17 -56 34 -119 50 -188 113 -413 124 -442 l10 -28 138 0 138 0 10 42
c6 24 22 84 36 133 14 50 41 149 61 220 52 184 52 182 58 165 11 -28 55 -185
97 -345 23 -88 45 -171 49 -185 8 -25 8 -25 144 -28 l137 -3 11 28 c6 15 30
98 54 183 24 85 67 234 95 330 46 154 90 315 90 326 0 2 -53 4 -119 4 l-119 0
-25 -107 c-14 -60 -42 -184 -62 -278 -48 -220 -55 -248 -61 -242 -3 3 -23 74
-45 158 -102 392 -119 459 -119 464 0 9 -249 5 -254 -4 -3 -5 -26 -85 -50
-177 -83 -315 -120 -443 -127 -439 -3 3 -9 19 -12 37 -3 18 -13 62 -21 98 -8
36 -28 130 -45 210 -17 80 -38 176 -47 213 l-17 69 -53 -4 -54 -3 0 503 0 502
-180 0 -180 0 0 -527z"/>
</g>
</svg>
